<svg width="165" height="40" fill="none" xmlns="http://www.w3.org/2000/svg"><path d="M160.028 26.647h4.968s-2.381-2.493-2.484-3.406c0 0-.383 1.767-2.907 1.767h-2.493V21.29a8.19 8.19 0 006.957-8.095c0-4.518-3.663-8.195-8.163-8.195-4.499 0-8.162 3.677-8.162 8.194a8.19 8.19 0 006.912 8.087v3.727h-6.39s-1.206-.041-1.449-.61c0 0 1.035 2.25 2.606 2.25h5.228v2.53s-.139 2.316-1.057 3.07l4.279 2.748s-.761-1.08-.761-5.986v-2.363h2.916zm-4.117-6.627c-2.83 0-5.13-3.063-5.13-6.825 0-3.763 2.3-6.826 5.13-6.826s5.129 3.063 5.129 6.825c0 3.763-2.299 6.826-5.129 6.826zM139.91 8.975h6.147s-2.38-2.263-2.484-3.175c0 0-.724 1.535-3.249 1.535h-10.996s-1.206-.04-1.449-.61c0 0 1.035 2.25 2.605 2.25h5.98a2.7 2.7 0 01.09.682v2.54h-2.943c-2.524 0-3.249-1.767-3.249-1.767-.103.908-2.483 3.406-2.483 3.406h13.143v8.94h-9.814c-2.411-1.63-3.334-.962-3.334-.962 1.049-.353.869 3.69.869 3.69v4.667s.148 4.03 4.63 4.03h6.942s3.285.094 4.977-2.67c0 0 .517-.972.756-1.071 0 0-1.584.054-1.984-3.478 0 0 .054 4.508-4.783 4.508h-5.922s-2.227.09-2.227-2.2v-6.22h8.396c3.316 0 2.425 5.064 2.425 5.064l2.858-2.869c-1.251-.176-1.112-1.531-1.112-1.531v-9.925c1.426-.221 2.353-2.232 2.353-2.232-.243.57-1.448.61-1.448.61h-5.593v-.718c0-.917.324-1.798.899-2.498v.004zm-23.744 7.82h4.018l-1.435-2.507s.126 2.173-1.786 2.173h-.801v-1.604c0-2.774 1.926-3.533 1.926-3.533l-5.67-1.992c.756 1.125.918 3.438.918 3.438v3.69h-3.676s-.257.741 1.719 1.88c0 0-.518-1.545 1.957-1.545v11.501c0 .908-.409 1.785-1.161 2.29-1.606 1.076-.805-2.132-.805-2.132s-1.602 3.542 0 3.542 3.406 2.968 3.406 2.968l2.403-2.24c-.666-.57-1.022-3.298-1.022-3.298V16.794h.009z" fill="#000"/><path d="M123.145 8.849c0-1.383.913-1.794.913-1.794l-5.759-2.023c1.597 1.603-.792 1.536-.792 1.536h-6.448a9.573 9.573 0 01-3.847-.81l-1.66-.726s1.17.835 1.17 3.175v11.09s-.081 5.421-2.277 9.455c0 0 4.747-3.365 4.747-15.48l.018-5.065h11.267V19.66c0 4.278-3.289-.745-3.289-.745l3.37 7.087 3.5-4.373c-.202-.185-.378-.618-.522-1.097a10.405 10.405 0 01-.395-2.927V8.848h.004zm-18.88 6.424l-2.709-3.072s.113 1.432-2.835 1.432h-1.525V10.71c0-.917.324-1.798.9-2.498h7.019s-2.38-2.263-2.484-3.176c0 0-.382 1.536-2.906 1.536h-11.34s-1.205-.04-1.448-.61c0 0 1.035 2.25 2.605 2.25h5.107c.059.221.09.452.09.682v4.743H91.1s-1.39-.524-1.165-1.093l-2.623 2.561s1.196.186 1.196 1.568v12.735s.149 4.029 4.63 4.029h5.39s3.286.095 4.977-2.67c0 0 .518-.971.756-1.07 0 0-1.984-.177-1.984-4.202 0 0 .054 5.227-4.783 5.227h-4.37s-2.226.09-2.226-2.2v-5.398h9.296s-2.38-2.494-2.484-3.406c0 0-.383 1.766-2.907 1.766h-3.905v-6.216h13.368v.005zm-33.014-2.53s3.047.451 3.866 4.07c0 0 .337 1.662 1.934 1.306 1.598-.353 1.035-6.754-5.8-5.376z" fill="#000"/><path d="M83.121 8.207s-2.38-2.263-2.483-3.175c0 0-.725 1.536-3.25 1.536H66.05s-1.206-.041-1.449-.61c0 0 .55 1.183 1.449 1.834V22.97s.14 1.355-1.111 1.532l2.857 2.868s-.545-5.064 2.772-5.064h9.296v1.035l.004 5.181c0 2.29-2.227 2.2-2.227 2.2h-7.96c-4.841 0-4.783-5.227-4.783-5.227 0 4.025-1.984 4.202-1.984 4.202.238.099.756 1.07.756 1.07 1.692 2.76 4.976 2.67 4.976 2.67h8.981c4.487 0 4.63-4.03 4.63-4.03v-4.666s-.18-4.048.869-3.69c0 0-.922-.67-3.334.962H68.727V8.207h14.394z" fill="#000"/><path d="M58.788 31.793h-2.529v-4.007c0-.881.297-1.735.837-2.422h.945c4.486 0 4.63-4.03 4.63-4.03v-4.666c0-1.382 1.197-1.567 1.197-1.567l-2.623-2.562c.224.57-1.166 1.094-1.166 1.094h-3.82V10.71c0-.917.324-1.798.9-2.498h7.02s-2.381-2.268-2.485-3.18c0 0-.382 1.536-2.906 1.536h-11.34s-1.205-.041-1.448-.61c0 0 1.035 2.25 2.605 2.25h5.107c.059.22.09.451.09.681v4.744h-1.345c-2.947 0-2.835-1.432-2.835-1.432l-2.709 3.072h13.369v5.181c0 2.29-2.228 2.2-2.228 2.2h-4.369c-4.841 0-4.783-5.227-4.783-5.227 0 4.025-1.984 4.201-1.984 4.201.238.1.756 1.071.756 1.071 1.692 2.76 4.976 2.67 4.976 2.67h1.08c.045.199.072.402.072.605v5.828h-6.96s-.599-.041-.842-.61c0 0 1.035 2.25 2.605 2.25h15.573s-2.38-2.494-2.483-3.407c0 0-.383 1.767-2.907 1.767v-.01zM20 40c11.027 0 20-8.973 20-20 0-5.384-2.14-10.278-5.611-13.877.305-.309.628-.6.97-.87l.102-.081.875-4.434L30.992 3.3A19.887 19.887 0 0019.999 0 19.887 19.887 0 009.007 3.3L3.664.74l.875 4.433.102.08c.342.271.665.563.97.872C2.14 9.724 0 14.617 0 20c0 11.028 8.973 20 20 20zM35.25 2.576l-.436 2.203a11.645 11.645 0 00-3.258 4.24l-2.795 6.223a.677.677 0 01-1.266-.478l1.969-6.373.02-.066 1.187-3.844a.679.679 0 01.355-.412l3.801-1.822a.3.3 0 01.423.327v.002zm-5.988 19.163s.022.108.03.274h.003a2.444 2.444 0 01-.05.248c-.007.046-.033.09-.055.135a1.126 1.126 0 01-.307.362 1.07 1.07 0 01-.28.15l-.068.02a1.622 1.622 0 00.433-.278c-.022.018-.066.055-.115.09a.65.65 0 01-.176.087c.244-.123.516-.39.543-.684-.02.055-.04.109-.063.161-.032.049-.06.099-.094.145l-.113.128-.13.114.115-.113c.037-.045.073-.098.11-.152a.787.787 0 00.09-.41h.008a.759.759 0 00-.102-.282 1.062 1.062 0 01.068.281h-.003c-.012.098-.012.225-.08.35-.027.067-.078.126-.124.19-.06.057-.114.122-.195.172a.584.584 0 00.114-.102.702.702 0 00.118-.152.752.752 0 00.088-.206l.014-.123c0-.043 0-.086-.003-.131h.01c-.033-.116-.067-.238-.163-.335-.04-.052-.102-.092-.157-.134a1.26 1.26 0 00-.2-.097c.053.025.159.064.257.155.055.04.099.1.147.165.018.036.035.073.051.114.014.041.025.086.036.132h-.01a.73.73 0 01-.078.405.984.984 0 01-.354.358s.064-.05.134-.132c.067-.084.14-.2.151-.324l-.013.058c-.011.033-.03.08-.05.127-.05.09-.122.186-.176.198-.049.014.012-.1.059-.216.046-.119.07-.247.07-.247-.002-.001-.014.076-.048.155-.029.082-.082.163-.098.203 0 0-.021-.082-.038-.188-.01-.055-.018-.113-.028-.181-.013-.067-.052-.142-.082-.215 0 0 0 .014.007.041.01.028.02.066.038.123.022.055.023.121.03.204.008.084.02.188.022.327l-.007-.065a1.009 1.009 0 00-.03-.15 1.343 1.343 0 00-.05-.168s-.029-.07-.103-.15l-.002-.003-.021-.02v-.005l.02.023-.02-.025.054-.385c.032.018.063.037.095.059.103.065.137.147.17.192h.003c-.04-.114-.148-.202-.266-.266l.018-.133v.003c.082.033.16.071.224.113a.946.946 0 00-.221-.131l.037-.266c.154.059.306.138.434.249a.602.602 0 00-.198-.203.967.967 0 00-.229-.097l.008-.056c.075.014.152.03.229.054a.779.779 0 00-.224-.093l.017-.116c.202.051.402.146.554.299.145.143.25.33.267.585l.005.058v.02c-.017.121-.03.231-.075.326.043-.102.051-.224.064-.346h.004a1.717 1.717 0 00-.051-.274v.001zm-.863 7.957a3.002 3.002 0 01.026.252h.004a2.16 2.16 0 01-.052.252.912.912 0 01-.141.26 1.117 1.117 0 01-.525.372l-.073.02c.119-.05.226-.116.328-.185a.827.827 0 01-.184.086c.255-.125.537-.37.568-.672a1.108 1.108 0 01-.423.538c.15-.12.359-.348.33-.671h.007a.658.658 0 00-.126-.307s.069.101.089.307h-.003a.85.85 0 01-.086.355.99.99 0 01-.336.353c.136-.1.39-.321.347-.708h.009a.693.693 0 00-.181-.344.973.973 0 00-.4-.228c.064.024.176.065.291.152a.678.678 0 01.26.42h-.01c.036.277-.116.562-.457.759 0 0 .065-.05.137-.13a.668.668 0 00.158-.314l-.016.057a.806.806 0 01-.054.124c-.049.09-.123.178-.181.193-.055.014 0-.095.048-.206.051-.111.078-.244.078-.244l-.011.048c-.012.029-.026.067-.043.106-.037.078-.087.16-.103.196 0 0-.01-.02-.02-.051a1.322 1.322 0 01-.057-.306c0-.034-.027-.071-.046-.11-.016-.039-.043-.08-.064-.12-.005 0 .013.06.062.177.034.059.024.126.032.206.007.083.023.178.044.311 0 0-.021-.094-.061-.203l-.058-.16a1.37 1.37 0 00-.148-.162.462.462 0 01.099.193 1.191 1.191 0 00-.212-.192l.066-.48c.07.028.15.06.224.104.143.065.166.158.205.205h.004c-.026-.043-.045-.087-.082-.125-.018-.02-.03-.04-.053-.056l-.08-.047a1.332 1.332 0 00-.218-.089l.018-.13a1.433 1.433 0 01.376.152 1.167 1.167 0 00-.33-.162c-.013-.005-.03-.008-.044-.012l.035-.253c.225.06.442.15.62.287-.095-.163-.31-.261-.49-.302a1.361 1.361 0 00-.125-.022l.006-.046c.141.014.282.039.418.078a1.072 1.072 0 00-.411-.124l.015-.113c.291.035.581.14.78.328.145.14.254.316.272.576 0 .02.003.038.005.059 0 .008 0 .013-.002.02-.01.088-.026.165-.048.238.02-.08.03-.167.037-.258h.004c-.012-.084-.023-.17-.049-.25l.002-.002zm-1.835.162a1.998 1.998 0 00-.602.091c-.033.015-.169.068-.242.106a2.156 2.156 0 00-.73.593 2.172 2.172 0 00-.206-.103l.7-6.617a1.664 1.664 0 00.672.2 2.096 2.096 0 001.247-.33l-.838 6.06h-.001zm-2.289.533a2.38 2.38 0 00-.628-.006 2.205 2.205 0 00-.77.229c-.192.1-.345.22-.483.35a2.43 2.43 0 00-.2-.127 1.994 1.994 0 00-.405-.176l.283-5.983c.17-.032.322-.08.45-.142.187-.09.334-.2.463-.322a1.692 1.692 0 00.668.283c.18.033.39.043.616.014a1.93 1.93 0 00.746-.238 1.7 1.7 0 00.274-.198l-.678 6.4a1.933 1.933 0 00-.334-.085l-.002.001zm-10.577 1.362c.034.023.068.045.105.067.184.107.409.194.662.245.333.07.631.059.874.006.014-.002.025-.007.038-.01l.095.898c.048.461-.43.8-.846.598-.456-.22-.713-.423-.758-.538v-.024l-.171-1.242h.001zm1.29.168a1.615 1.615 0 01-.728-.098c.124.04.26.07.405.08 0 0-.157-.031-.355-.101a1.78 1.78 0 01-.595-.329l-.036-.04c.113.074.227.148.342.217 0 0-.204-.133-.215-.17.17.121.412.255.63.305a15.59 15.59 0 01-.478-.257c.176.082.481.218.8.158 0 0-.095 0-.251-.027a2.073 2.073 0 01-.603-.21c.19.093.67.248 1.214.03a1.639 1.639 0 01-1.29-.11s.255.085.492.055c0 0-.361.011-.412-.058-.026-.033.102-.049.232-.06l.267-.015h-.166c-.088 0-.188 0-.23.003 0 0 .312-.242.681-.28 0 0-.068-.01-.199.022-.133.034-.33.112-.607.278l.221-.148c.124-.082.275-.18.391-.238a3.166 3.166 0 01-.24.09c.143-.094.282-.191.424-.272.22-.129.445-.223.685-.255.138-.018.28-.02.447.005l.075.014c.186.07.345.159.345.159a2.758 2.758 0 00-.779-.087.766.766 0 00-.238.043c.467-.065.851.093.851.093-.356-.046-.655.004-.655.004.585-.02.848.12.848.12-.194-.021-.453.027-.453.027.236-.037.582.018.582.018-.075-.006-.23.063-.368.132-.136.067-.257.136-.257.136.458-.191.78-.223.78-.223-.057-.018-.338.22-.338.22.044-.031.13-.062.202-.089a2.19 2.19 0 00-.129.097l.125-.058c-.236.189-.457.393-.703.552a1.68 1.68 0 01-.717.27l.002-.003zm-3.389-1.723a2.943 2.943 0 01-.025-.252h-.004a2.18 2.18 0 01.052-.251.912.912 0 01.14-.26c.126-.165.318-.303.526-.372l.073-.02a1.996 1.996 0 00-.329.184.83.83 0 01.184-.085c-.254.125-.536.37-.567.67.077-.227.234-.4.423-.537-.15.119-.36.347-.33.67h-.007a.65.65 0 00.126.307s-.069-.1-.09-.307h.003a.847.847 0 01.087-.355.99.99 0 01.336-.352c-.137.1-.39.32-.347.707h-.01a.694.694 0 00.182.344.98.98 0 00.4.229c-.064-.024-.176-.065-.291-.152a.678.678 0 01-.26-.42h.01c-.037-.278.115-.563.457-.76 0 0-.065.05-.137.13a.67.67 0 00-.159.314l.017-.056a.687.687 0 01.054-.124c.048-.09.123-.18.181-.193.055-.014 0 .094-.048.205a1.291 1.291 0 00-.078.244l.011-.048.042-.106c.037-.078.087-.16.104-.196 0 0 .009.02.02.051a1.365 1.365 0 01.056.306c0 .034.027.071.046.111.017.038.044.08.064.119a.693.693 0 00-.06-.177c-.035-.058-.025-.126-.033-.205a4.75 4.75 0 00-.045-.312s.022.095.062.203l.057.161c.045.06.101.114.148.161a.462.462 0 01-.098-.193c.056.067.087.127.164.183l-.064-.461.073.527-.023-.002-.053-.054a.76.76 0 00.072.074.151.151 0 01-.013-.014c.27.202.876.237 1.01.233.085-.002.132-.007.162.007l.01.008c-.002.009-.002.02-.002.032 0 .043.01.092.01.092-.082-.069-.155-.074-.252-.083a4.862 4.862 0 00-.184-.008c.18.026.241.04.285.07.04.029.057.063.057.063a.954.954 0 00-.217-.036l-.136-.012c.19.037.261.06.312.094a.22.22 0 01.068.07c-.082-.025-.274-.01-.279-.012a1.003 1.003 0 01.331.057c-.037-.008-.144.05-.287.09-.14.043-.306.067-.306.067.283-.023.436-.061.532-.079l.061-.013c.016-.003.046-.001.063-.002l.056.002c-.023-.012-.123.025-.179.077-.067.05-.148.092-.148.092.047-.02.123-.04.179-.061a3.242 3.242 0 01-.123.079 1.21 1.21 0 00.111-.042c-.21.16-.558.301-.976.306-.369.01-.78-.1-1.036-.343a.837.837 0 01-.272-.577l-.005-.058.001-.02c.01-.089.027-.166.049-.238-.02.08-.03.167-.037.258h-.004a1.4 1.4 0 00.049.25l-.002.001zm.119-6.716c-.09-.04-.213-.115-.348-.193-.261-.17-.51-.43-.553-.65l-.009-.052c.03.066.057.136.1.201l.063.101.067.083a1.07 1.07 0 01-.076-.108c-.036-.067-.067-.133-.062-.149.027.05.06.107.099.164.044.054.094.112.147.17.117.109.258.217.409.286l-.154-.112-.135-.122c-.092-.075-.157-.166-.23-.245l.15.148c.06.053.139.105.22.16.086.05.184.093.284.133a.929.929 0 00.147.042c.038.006.077.01.115.012l-.064-.017a1.24 1.24 0 01-.212-.08 1.761 1.761 0 01-.567-.397c.094.092.244.202.45.288.302.13.517.134.785.075a1.27 1.27 0 01-.442.004c-.264-.051-.7-.239-.91-.562 0 0 .053.056.14.129a1.14 1.14 0 00.377.184l-.066-.024c-.04-.017-.098-.035-.15-.066a1.87 1.87 0 01-.147-.09c-.04-.03-.066-.062-.068-.08-.005-.038.133.036.282.089.07.03.15.05.205.069.055.016.092.029.092.029l-.18-.065c-.096-.036-.199-.09-.248-.107l.28.006c.16.001.35-.012.507 0 0 0-.048-.02-.18-.02-.13-.006-.358.019-.747-.05a1.752 1.752 0 00.314.023 2.21 2.21 0 00.484-.058 1.549 1.549 0 01-.256.012c.19-.028.341-.08.457-.137.046-.02.081-.047.128-.065.053-.017.104-.028.156-.041a1.382 1.382 0 01.702.022l.063.02c.154.083.288.179.288.179a2.627 2.627 0 00-.676-.164.65.65 0 00-.212.01 1.654 1.654 0 01.735.183c-.31-.079-.58-.07-.58-.07.259.028.443.076.563.12a.71.71 0 01.175.083c-.171-.04-.407-.024-.407-.024a2.24 2.24 0 01.518.077c-.068-.01-.212.034-.344.083-.13.047-.245.096-.245.096a3.09 3.09 0 01.697-.122c-.086.022-.3.166-.3.166a1.15 1.15 0 01.19-.061c-.062.033-.126.076-.126.076l.12-.042c-.233.151-.454.313-.7.427a1.399 1.399 0 01-.701.146 1.554 1.554 0 01-.221-.036 1.678 1.678 0 01-.282-.102c-.124-.064-.238-.122-.335-.19.08.056.175.099.27.149.047.023.098.048.146.065.057.02.077.026.115.037l-.108-.048.001.002zm-.267-2.81l.03.21-.038.03.037-.026.017.12c-.046.05-.09.1-.128.15-.03.055-.057.107-.078.16a.902.902 0 01.209-.284l.046.33a.69.69 0 00-.101.284.425.425 0 00.139.37s-.02-.024-.051-.07a.44.44 0 01-.056-.191.695.695 0 01.037-.26c.01-.032.024-.062.038-.093l.097.7a.756.756 0 01-.14-.078c-.113-.078-.18-.176-.18-.176.082.172.23.272.329.32l.006.048-.05-.006c-.103-.015-.21-.043-.21-.043.059.018.136.057.207.076l-.122-.018-.057-.012a.68.68 0 00.135.044 1.448 1.448 0 01-.262-.047.692.692 0 01-.237-.101.756.756 0 01-.25-.335c-.072-.225-.048-.51.186-.774a1.52 1.52 0 01.446-.345v.012l-.076.044.078-.037-.001-.003zm14.304 2.273c-.054 0-.234.284-.234.284a.957.957 0 01.15-.131c-.044.056-.085.12-.085.12l.092-.085c-.154.23-.291.47-.463.674a1.502 1.502 0 01-.547.43 1.41 1.41 0 01-.42.113c-.08.008-.153.012-.222.01.115-.003.237-.017.363-.049 0 0-.567.067-.917-.085l-.042-.022.347.077s-.21-.051-.23-.08c.178.049.42.094.615.072l-.474-.08c.171.016.465.043.72-.1 0 0-.328.113-.788.05.194.019.666.012 1.088-.366a1.542 1.542 0 01-1.177.322s.236-.009.429-.105c0 0-.3.12-.364.077-.062-.04.398-.218.398-.218s-.267.089-.334.122c0 0 .186-.306.498-.448 0 0-.243.04-.597.503 0 0 .238-.353.404-.521-.05.043-.117.1-.181.15.094-.126.187-.248.287-.362.155-.175.328-.323.531-.418a1.42 1.42 0 01.395-.119l.07-.007c.18.01.343.044.343.044a2.452 2.452 0 00-.705.137.744.744 0 00-.197.104c.395-.187.772-.151.772-.151a2.261 2.261 0 00-.573.182c.509-.178.773-.126.773-.126a1.711 1.711 0 00-.387.146 2.15 2.15 0 01.512-.142c-.067.015-.182.117-.283.214-.101.096-.187.19-.187.19.348-.292.617-.407.617-.407l.003.002zm-.308-.369a2.09 2.09 0 00-.473.026 1.993 1.993 0 00-.695.237 1.922 1.922 0 00-.428.34 1.941 1.941 0 00-.645-.276 2.204 2.204 0 00-1.054.051l.12-2.546a1.932 1.932 0 011.681-1.827c.206-.027.408-.055.606-.085a1.05 1.05 0 011.197 1.15l-.31 2.93h.001zm-2.167.847c-.05.053-.097.111-.097.111.02-.012.058-.042.101-.076-.177.213-.335.44-.524.628a1.53 1.53 0 01-.576.385 1.445 1.445 0 01-.424.08h-.037l-.013.003c-.08.004-.15 0-.22-.006.074.003.152 0 .233-.007v.004c.059-.004.119-.01.181-.02 0 0-.073.002-.181 0v.003c-.188-.003-.537-.029-.773-.152l-.04-.024.34.101s-.204-.066-.222-.095a1.8 1.8 0 00.604.116l-.465-.114c.133.021.339.055.548.009v.007a.894.894 0 00.224-.066s-.085.022-.225.033v-.002c-.14.014-.357.019-.612-.035.12.02.345.038.608-.033v-.03a1.541 1.541 0 01-.694.013s.237.008.435-.074c0 0-.308.099-.367.051-.059-.044.413-.189.413-.189s-.272.07-.343.099c0 0 .207-.294.53-.412 0 0-.247.022-.632.459 0 0 .26-.335.44-.492-.053.04-.126.092-.192.137.103-.12.204-.235.314-.34l.059-.053v.04c.167-.16.348-.289.556-.367.121-.044.25-.074.407-.085.025 0 .048 0 .07-.002.182.027.343.076.343.076-.689-.015-.929.163-.929.163.412-.155.788-.086.788-.086-.33.026-.591.132-.591.132.525-.138.788-.058.788-.058-.179.015-.402.11-.402.11a2.06 2.06 0 01.527-.095c-.138.02-.508.359-.508.359.372-.26.657-.348.657-.348-.054-.005-.262.261-.262.261a.946.946 0 01.165-.117l-.002-.002zm-3.575 7.624a2.325 2.325 0 00-.189-.143 1.941 1.941 0 00-.477-.24 2.325 2.325 0 00-.629-.113h-.028l-.291-6.176c.024.02.047.04.072.058.128.088.274.17.451.226.174.056.379.092.605.094.297.005.555-.047.762-.131a1.74 1.74 0 00.48-.292 1.739 1.739 0 00.645.327c.176.046.383.068.61.058h.012l-.001-.038v.037h.04c.043-.002.082-.008.125-.012l-.279 5.913a2.32 2.32 0 00-.548-.046c-.31.009-.578.071-.795.163a1.8 1.8 0 00-.27.142v-.03c-.107.06-.204.129-.294.201v.002zm-5.512-6.878a1.627 1.627 0 01-.217-.055c.072.02.15.036.232.046v.004c.059.01.12.016.184.018 0 0-.073-.013-.18-.04v.004c-.185-.043-.528-.148-.733-.324l-.035-.033.314.178s-.188-.11-.199-.142c.159.098.378.214.574.249-.147-.072-.292-.14-.436-.216.127.053.323.13.54.131l.004-.019-.005.026c.077.004.155 0 .235-.018 0 0-.087.004-.229-.017v-.002a1.948 1.948 0 01-.596-.172c.114.049.333.118.608.104v.009a1.42 1.42 0 00.595-.14 1.518 1.518 0 01-.591.112v-.01a1.52 1.52 0 01-.685-.144s.231.064.446.027c0 0-.326.026-.373-.034-.024-.03.09-.051.207-.065.117-.015.241-.026.241-.026s-.282.009-.357.02c0 0 .27-.237.608-.283 0 0-.062-.008-.182.027s-.297.112-.539.28c0 0 .334-.265.54-.381-.06.027-.141.062-.217.09.128-.091.252-.185.38-.263l.068-.04-.007.04c.194-.12.396-.21.612-.244a1.43 1.43 0 01.413-.002l.069.011c.171.06.32.142.32.142a2.445 2.445 0 00-.72-.069c-.15.013-.217.045-.217.045.43-.07.784.073.784.073a2.235 2.235 0 00-.603.012c.54-.029.78.099.78.099a1.59 1.59 0 00-.415.03c.216-.038.536.01.536.01-.138-.007-.569.252-.569.252.415-.182.712-.212.712-.212-.052-.016-.308.203-.308.203a.934.934 0 01.184-.083c-.059.041-.117.091-.117.091.02-.01.065-.03.113-.055-.216.176-.414.364-.637.514a1.51 1.51 0 01-.645.259 1.34 1.34 0 01-.439-.012l-.037-.007h-.013l.002.002zm-.543-1.277h.024c-.005-.003-.014-.002-.024 0zm2.502 1.187c-.052-.053.434-.137.434-.137s-.279.036-.352.055c0 0 .243-.264.576-.341 0 0-.062-.003-.178.043-.117.047-.287.14-.506.334 0 0 .301-.3.498-.433a3.354 3.354 0 01-.207.11c.117-.104.232-.207.354-.298.186-.142.387-.252.607-.303.126-.03.258-.042.415-.035l.07.007c.178.049.332.117.332.117a2.386 2.386 0 00-.727-.015.68.68 0 00-.215.063c.426-.105.793.011.793.011-.332-.015-.604.059-.604.059.538-.072.79.04.79.04a1.66 1.66 0 00-.413.058c.213-.053.536-.028.536-.028-.14.003-.55.294-.55.294.4-.212.696-.262.696-.262-.054-.013-.294.225-.294.225a.98.98 0 01.177-.096 1.696 1.696 0 00-.11.099c.018-.012.062-.036.11-.063-.204.19-.39.394-.599.558-.185.149-.39.26-.618.31a1.462 1.462 0 01-.65-.007c.112.02.233.032.364.024 0 0-.566-.047-.882-.263l-.037-.03.326.144s-.194-.09-.21-.121c.165.08.393.173.588.19l-.448-.17c.165.05.447.133.724.042 0 0-.342.047-.78-.105.186.058.649.14 1.137-.144-.141.075-.62.287-1.217.084 0 0 .234.039.442-.019 0 0-.318.058-.372.004v-.001zm2.4.276c.17.069.401.147.596.15l-.457-.14c.168.038.454.102.723-.004 0 0-.337.069-.784-.055.189.043.654.098 1.124-.217-.135.084-.6.326-1.206.162 0 0 .235.022.438-.048 0 0-.313.078-.369.029-.056-.05.423-.165.423-.165s-.276.054-.348.078c0 0 .225-.28.552-.378 0 0-.246.008-.656.422 0 0 .28-.319.467-.465-.055.037-.13.085-.2.125.11-.111.22-.224.334-.32.178-.153.37-.277.588-.342.124-.037.256-.059.413-.06l.071.002c.18.037.339.098.339.098-.69-.062-.94.103-.94.103.421-.13.796-.037.796-.037-.334.005-.601.096-.601.096.534-.105.792-.008.792-.008-.18.003-.41.083-.41.083.21-.067.534-.06.534-.06-.14.01-.532.326-.532.326.389-.236.68-.304.68-.304-.053-.01-.28.243-.28.243.036-.032.109-.072.173-.106a1.74 1.74 0 00-.105.104l.106-.069c-.191.202-.364.416-.563.593a1.552 1.552 0 01-.598.348 1.39 1.39 0 01-.428.053 1.624 1.624 0 01-.219-.019c.114.012.236.015.363 0 0 0-.566-.011-.893-.206l-.038-.026.333.12s-.199-.078-.216-.108l-.002.002zm-3.55-.034c.203-.048.37-.129.52-.222a1.706 1.706 0 00.6.406c.17.07.373.118.6.136.297.023.559-.013.77-.084.162-.053.297-.127.421-.209l.293 6.202a2.118 2.118 0 00-.597.102 2.13 2.13 0 00-.533.27 2.301 2.301 0 00-.175-.158 1.985 1.985 0 00-.45-.278 2.29 2.29 0 00-.608-.169 2.413 2.413 0 00-.471-.022l-.629-5.935c.092-.008.18-.02.261-.04l-.001.001zm6.97-1.303c-.023.01-.047.018-.069.03-.088.042-.169.09-.243.14v-.028a2.086 2.086 0 00-.262.197 2.186 2.186 0 00-.178-.123 1.746 1.746 0 00-.449-.198 2.039 2.039 0 00-.583-.073 1.988 1.988 0 00-.732.136 1.887 1.887 0 00-.474.28 1.764 1.764 0 00-.96-.442l-.18-3.856a.296.296 0 01.314-.31 33.92 33.92 0 003.687 0 .297.297 0 01.314.31l-.185 3.937zm-4.127-.102c-.015 0-.029-.003-.044-.004a2.003 2.003 0 00-.737.091 1.93 1.93 0 00-.49.25 2.217 2.217 0 00-.162-.145 1.805 1.805 0 00-.417-.253 2.051 2.051 0 00-.562-.148 1.977 1.977 0 00-.86.067l-.332-3.127a1.048 1.048 0 011.197-1.15c.617.095 1.273.169 1.947.222.15.012.269.133.275.283l.184 3.915h.001zm-3.445-.102a2.384 2.384 0 00-.25.117 3.369 3.369 0 00-.145-.16 1.876 1.876 0 00-.377-.294 2.16 2.16 0 00-.515-.214 1.948 1.948 0 00-.737-.071l-.538-3.896a.496.496 0 01.67-.531c.226.09.471.174.733.252.406.12.701.474.746.896l.413 3.9zm-1.393.842a1.665 1.665 0 00.563.478c.167.087.369.157.596.196h.013l.037.008c.122.02.237.028.349.03l.628 5.944a1.68 1.68 0 00-.143.024 2.186 2.186 0 00-.55.205c-.047-.06-.093-.123-.145-.18a2.146 2.146 0 00-.27-.26l-.028-.023-.023-.018c-.006-.006-.021-.014-.021-.019v-.011c0-.06.029-.085.029-.085s-.014.01-.054.02a.686.686 0 01-.189.019 1.097 1.097 0 01-.257-.039l-.093-.012-.85-6.156c.151-.024.285-.07.41-.124l-.002.003zm2.91 8.184a2.2 2.2 0 00.18.165c.133.11.287.207.478.285.188.075.412.13.66.15.33.026.617-.015.85-.093.072-.024.139-.052.202-.083l.072 1.53a.596.596 0 01-.679.615 12.94 12.94 0 01-1.527-.305.59.59 0 01-.434-.51l-.167-1.583a2.01 2.01 0 00.366-.172v.001zm1.808.392a1.576 1.576 0 01-.475.03 1.85 1.85 0 01-.24-.037c.124.02.258.035.4.026 0 0-.624-.052-.969-.29l-.04-.033.357.159s-.213-.1-.23-.135c.182.09.43.192.645.21l-.493-.188c.182.055.492.147.796.049 0 0-.377.052-.858-.117.195.06.668.145 1.175-.12a1.7 1.7 0 01-1.261.054s.257.042.485-.018c0 0-.348.062-.407.003-.058-.058.477-.147.477-.147s-.306.037-.386.059c0 0 .268-.288.632-.37 0 0-.268-.01-.751.408 0 0 .332-.325.547-.47a3.29 3.29 0 01-.228.12c.13-.113.255-.226.387-.325a1.82 1.82 0 01.662-.332c.137-.032.281-.047.452-.04l.077.008c.193.05.363.125.363.125-.746-.106-1.029.057-1.029.057a1.8 1.8 0 01.867.007c-.363-.012-.66.068-.66.068.588-.08.864.038.864.038a1.784 1.784 0 00-.452.068c.232-.06.586-.036.586-.036-.152.004-.599.325-.599.325.438-.235.759-.293.759-.293-.059-.014-.318.248-.318.248.04-.033.124-.074.194-.106-.061.05-.12.109-.12.109l.119-.07c-.22.211-.42.433-.65.615a1.672 1.672 0 01-.679.341h.001zm.906-.173a1.877 1.877 0 00.689.391c.191.06.416.095.665.095h.055c.327 0 .61-.062.837-.158.208-.088.374-.202.521-.33.045.033.095.064.143.095l-.085 1.828a.591.591 0 01-.56.565c-.287.015-.586.023-.895.023h-.156a1.349 1.349 0 01-1.333-1.287l-.052-1.108c.06-.035.117-.072.171-.113v-.002zm2.528-.151c-.19.175-.403.318-.649.392-.14.043-.29.065-.47.068-.014 0-.027 0-.04-.002 0 0-.01 0-.015.002-.087 0-.165-.008-.24-.018a1.8 1.8 0 00.256.005v.004c.065 0 .131-.005.199-.014 0 0-.08 0-.2-.01v.005c-.205-.015-.586-.06-.839-.206l-.043-.028.368.127s-.22-.082-.24-.113c.187.074.443.154.659.156l-.505-.147c.145.032.368.076.6.038v.008a.929.929 0 00.248-.063s-.093.02-.247.026v-.003a2.16 2.16 0 01-.669-.07c.13.03.377.06.669-.005v.009c.178-.035.377-.104.575-.234a1.705 1.705 0 01-.575.203v-.011a1.73 1.73 0 01-.76-.02s.259.02.481-.06c0 0-.342.091-.405.037-.063-.052.461-.185.461-.185s-.301.063-.38.09c0 0 .244-.31.601-.42 0 0-.27.01-.714.467 0 0 .304-.35.506-.514-.06.041-.142.095-.217.14.119-.124.236-.247.36-.356l.067-.053v.043c.187-.166.392-.299.622-.373a1.627 1.627 0 01.526-.073c.197.036.372.099.372.099-.753-.049-1.022.134-1.022.134.456-.15.865-.058.865-.058-.363.014-.653.118-.653.118.58-.125.864-.028.864-.028a1.791 1.791 0 00-.446.102c.227-.078.581-.08.581-.08-.15.016-.572.369-.572.369.419-.269.734-.35.734-.35-.058-.008-.299.273-.299.273.039-.037.118-.083.186-.121-.058.053-.112.117-.112.117l.114-.078c-.203.226-.386.463-.602.662v-.001zm.555.342c.12.059.252.11.402.143.197.045.425.063.674.044.328-.026.608-.111.826-.228a1.91 1.91 0 00.495-.374c.069.04.139.08.216.114l.12.05-.168 1.594a.59.59 0 01-.433.51c-.447.118-.958.224-1.528.306a.594.594 0 01-.678-.615l.073-1.544zm2.504-1.157c.035-.04.108-.094.171-.138a1.511 1.511 0 00-.098.127c.019-.016.06-.05.104-.089-.178.245-.34.498-.536.714a1.654 1.654 0 01-.617.447 1.544 1.544 0 01-.465.105 1.535 1.535 0 01-.243 0c.125.003.26-.006.4-.037 0 0-.623.047-1-.133l-.045-.025.377.098s-.226-.065-.248-.096c.193.06.455.12.67.105l-.517-.107c.187.025.508.066.792-.078 0 0-.364.11-.865.02.202.03.685.037 1.146-.308-.19.13-.64.362-1.24.257 0 0 .26.001.475-.096 0 0-.335.118-.401.068-.066-.047.446-.221.446-.221s-.295.087-.372.119c0 0 .219-.326.565-.467 0 0-.267.034-.676.523 0 0 .276-.373.465-.552a4.498 4.498 0 01-.206.156c.109-.133.216-.263.331-.382a1.8 1.8 0 01.6-.433c.128-.055.268-.09.436-.113l.077-.006c.198.02.374.064.374.064-.373.013-.622.065-.778.119a.795.795 0 00-.22.104c.44-.187.851-.131.851-.131a2.466 2.466 0 00-.635.175c.564-.174.853-.105.853-.105a1.785 1.785 0 00-.431.142c.22-.096.567-.133.567-.133-.074.015-.205.12-.32.222-.115.102-.212.198-.212.198.324-.251.585-.37.665-.405-.08.055-.24.288-.24.288v.004zm.31 1.864l.095-.905c.078.02.158.037.246.047.204.025.439.016.693-.037.293-.06.54-.168.738-.297l-.167 1.208v.035c-.047.119-.304.324-.759.547a.593.593 0 01-.847-.597v-.001zm1.46-1.24a1.589 1.589 0 01-.463.17 1.825 1.825 0 01-.247.032 1.75 1.75 0 00.403-.088s-.157.035-.366.049c-.208.014-.465.007-.663-.063l-.047-.02.391.057s-.235-.04-.26-.069c.2.038.472.07.69.027-.18-.012-.358-.028-.535-.046.19.005.52.009.792-.175 0 0-.356.162-.87.125.202.008.689-.038 1.102-.437a1.664 1.664 0 01-1.201.396s.26-.025.466-.148c0 0-.323.155-.396.113-.036-.021.072-.086.185-.149.115-.062.238-.12.238-.12s-.286.12-.36.16c0 0 .186-.346.51-.53 0 0-.066.016-.173.1a2.15 2.15 0 00-.441.498s.238-.402.402-.6c-.05.053-.12.12-.185.178.093-.144.184-.286.283-.418.15-.203.318-.382.517-.506a1.23 1.23 0 01.179-.097l.048-.021c.018-.008.035-.015.034-.016a.063.063 0 01.02-.01l.015-.001c.054.028.163.06.163.06a.4.4 0 00-.145.033c-.018.009-.02.015-.08.04-.045.023-.086.04-.12.06a.795.795 0 00-.193.135c.1-.06.194-.11.286-.144.114-.045.112-.044.146-.05.055-.008.11 0 .11 0a.409.409 0 00-.085.046l-.036.028c-.014.01-.014.017-.047.033-.1.056-.162.097-.162.097.064-.03.124-.057.179-.084l.075-.038a.415.415 0 01.114-.034c.067-.009.125-.002.125-.002-.078.034-.156.15-.161.15a.538.538 0 01.155-.114c.05-.026.094-.044.094-.044-.03.018-.015.111-.04.212a.927.927 0 01-.071.206c.113-.17.15-.276.178-.343a.91.91 0 01.04-.095c-.021.003.017.062.041.127.027.066.04.135.04.135-.001-.037.013-.094.018-.137.019.051.036.114.036.114a.38.38 0 00.006-.089c.096.214.077.465-.111.732a1.22 1.22 0 01-.152.178c-.07.06-.107.109-.155.156a1.48 1.48 0 01-.314.239l-.003.002zm1.176-7.986a1.4 1.4 0 01-.418.175c-.079.02-.153.03-.225.039.117-.02.24-.045.366-.098 0 0-.143.039-.334.06-.19.02-.425.025-.609-.033l-.045-.016c.12.012.24.028.36.038 0 0-.218-.027-.24-.052.183.029.432.046.63-.003a12.368 12.368 0 01-.49-.02c.173-.004.476-.012.716-.192 0 0-.32.163-.79.15a1.41 1.41 0 00.99-.446 1.5 1.5 0 01-1.085.412s.238-.034.42-.153c0 0-.29.153-.357.117-.034-.017.06-.081.163-.143.102-.06.212-.12.212-.12s-.257.12-.322.161c0 0 .156-.324.445-.503 0 0-.06.017-.155.097a1.953 1.953 0 00-.382.471s.202-.377.344-.564a2.75 2.75 0 01-.162.17c.08-.134.155-.27.24-.394.129-.193.273-.361.448-.483.099-.071.207-.128.339-.177l.06-.02c.036-.003.088-.014.107-.009.02.006.028.013.042.018l.046.02c-.033.005-.042.005-.083.017l-.165.067c-.1.043-.18.085-.24.123-.121.075-.168.131-.168.131a1.708 1.708 0 01.616-.266c.021 0 .03.003.03.003a2.57 2.57 0 00-.31.17c-.09.053-.143.094-.143.094a3.83 3.83 0 01.295-.15.944.944 0 01.18-.067c.057-.012.102-.005.102-.005-.04.02-.068.055-.107.092a1.527 1.527 0 00-.104.084c.036-.032.096-.069.124-.089.028-.02.051-.037.076-.05.046-.027.084-.044.084-.044-.027.019-.032.11-.072.215-.015.049-.05.106-.076.149l-.04.069.097-.126c.026-.035.044-.067.06-.095a2.92 2.92 0 00.111-.218c0 .02.013.067.02.114.008.064.007.137.007.137.005-.04.027-.096.039-.138.006.05.009.114.009.114a.453.453 0 00.02-.089.759.759 0 01-.023.35c-.018.063-.045.13-.078.195-.03.064-.058.125-.092.186-.117.21-.28.401-.488.529l.005-.004zm.493-1.791a1.579 1.579 0 00-.216.03l-.122.043-.007.009a.053.053 0 00-.019.005c-.042.013-.082.03-.126.045a2.15 2.15 0 00-.594.333 2.13 2.13 0 00-.367.388 1.893 1.893 0 00-.584-.198l.39-3.682c.044-.421.34-.774.746-.896.26-.078.506-.163.73-.252a.496.496 0 01.671.531l-.503 3.644h.001zm-1.515-4.487c-1.635.424-3.817.658-6.141.658-4.799 0-7.982-.988-8.407-1.76H13.2c1.038.934 4.572 1.202 6.802 1.202 2.229 0 5.763-.268 6.801-1.201h1.599c-.194.326-.912.752-2.259 1.101zm-8.887-5.377l.068-.269c.12-.477 1.224-.99 2.678-.99 1.453 0 2.557.513 2.677.99l.068.269h4.84l-.712 2.302c-1.714-.534-4.188-.838-6.873-.838-2.686 0-5.16.304-6.874.838l-.711-2.302h4.84zm-5.058-.71l-.025-.082a1.736 1.736 0 011.658-2.249h12.34a1.736 1.736 0 011.658 2.249l-.025.083H23.26c-.41-.753-1.684-1.259-3.26-1.259-1.575 0-2.85.505-3.259 1.259h-4.543zm14.189 3.905c-.165.48-2.466 1.355-6.387 1.355-3.92 0-6.221-.875-6.386-1.355.165-.48 2.465-1.356 6.386-1.356 3.921 0 6.222.876 6.387 1.356zm3.1-9.353l-.744 2.408H11.258l-.743-2.408A16.885 16.885 0 0120 3.013c3.512 0 6.775 1.073 9.486 2.905h-.002zM5.183 4.78L4.75 2.577a.299.299 0 01.423-.327l3.8 1.822c.17.081.3.23.356.411l1.187 3.844.02.067 1.969 6.372a.678.678 0 01-1.266.478L8.442 9.021a11.635 11.635 0 00-3.258-4.239v-.001zm2.612 4.53l3.046 6.779c-.003.03-.008.061-.008.09 0 .017.004.033.004.05l.002.013a.775.775 0 00.02.143l.567 4.093c-.482.242-.78.573-.861.853a.903.903 0 00-.044.38.957.957 0 00.11.319 1.171 1.171 0 00-.09.257.94.94 0 00.154.655c.155.235.454.487.86.67.15.067.202.081.282.108l.039.009.694 5.025c-.27.04-.528.134-.767.323a1.167 1.167 0 00-.303.346c-.083.138-.113.308-.132.5l-.002.021.006.063c.022.507.346.805.698.981.288.132.576.184.834.187l.26 1.873c.06 1.339 4.315 2.227 6.837 2.227 2.522 0 6.776-.888 6.838-2.227l.26-1.89c.092 0 .187-.005.285-.02.272-.039.574-.134.815-.325.123-.092.221-.208.303-.346.083-.138.112-.308.132-.5l.002-.021-.006-.063c-.022-.507-.346-.805-.698-.981a2.084 2.084 0 00-.5-.153l.763-5.523c.025-.003.046-.003.072-.007a1.609 1.609 0 00.77-.32c.238-.19.436-.482.446-.867l.003-.021-.007-.062c-.024-.502-.365-.838-.711-1.001a1.193 1.193 0 00-.243-.098l.617-4.465a.965.965 0 00.02-.143l.003-.014c0-.016.004-.032.004-.048a.693.693 0 00-.008-.091l3.046-6.779c.111-.247.233-.49.361-.727A16.925 16.925 0 0136.99 20c0 9.366-7.62 16.986-16.986 16.986s-16.99-7.619-16.99-16.985a16.92 16.92 0 014.42-11.418c.13.237.25.48.362.728z" fill="#000"/><path d="M12.343 23.223a.71.71 0 00.036-.008l-.036.008zm16.293-1.21l.036.092-.029-.092h-.007zM26.36 23.11zm.775.161zm.277-.568c.03-.032.059-.065.087-.099a.382.382 0 00.066-.092c-.004.002-.007.02-.06.072-.046.05-.115.116-.193.193-.155.153-.355.338-.485.492.138-.122.272-.246.4-.372.064-.061.124-.13.184-.193l.001-.001zm-.894.603a9.62 9.62 0 00.421-.349c-.162.1-.421.349-.421.349zm.923-.197a9.113 9.113 0 01-.461.423.676.676 0 00.344-.24.843.843 0 00.117-.183zm.259-.31c.017-.06.021-.095.021-.095-.107.258-.284.528-.453.782.13-.088.256-.285.34-.459.04-.088.073-.17.091-.228zm-3.732.713zm.78.233l-.038.034.038-.034zm.222-.423a5.105 5.105 0 00-.56.408 23.5 23.5 0 00.894-.618s-.147.089-.333.21zm-.87.403c.156-.095.312-.19.465-.288a3.147 3.147 0 00-.466.288zm.934-.053c-.168.115-.338.228-.512.338.294-.03.512-.338.512-.338zm.176-.047a3.18 3.18 0 00.195-.289c-.194.228-.395.453-.6.675.136-.068.29-.232.404-.387v.001zm-2.95.392l.042-.03-.041.03zm.65-.614s-.156.075-.353.181a4.783 4.783 0 00-.591.362c.319-.177.633-.357.944-.542v-.001zm-1.218.492v.004l.451-.234a2.722 2.722 0 00-.45.228v.002zm.898.045l-.535.296c.294-.008.535-.297.535-.297zm.399-.303c-.215.21-.432.416-.654.62.283-.107.654-.62.654-.62zm-1.28.614v.028c.163-.04.34-.11.516-.237a1.546 1.546 0 01-.516.21zm.024-.524s-.017.002-.047.012v.01c.016-.006.03-.015.047-.022zm-.127.193l.085-.043v-.008l-.085.051zm-2.55-.198c.046-.032.08-.053.08-.053a.625.625 0 00-.08.053zm.698.367l.044-.028-.044.028zm-.29-.091c.33-.157.655-.317.978-.481 0 0-.644.259-.978.481zm-.307-.048l.501-.22c-.189.049-.5.22-.5.22zm.932.08l-.552.262c.292.012.552-.262.552-.262zm.416-.276c-.227.196-.458.386-.692.578.289-.091.692-.578.692-.578zm-3.881-.154l.074-.044a.525.525 0 00-.074.044zm.675.41l.044-.026-.044.026zm.721-.53s-.659.22-1.005.42a31.67 31.67 0 001.004-.42zm-1.31.355l.514-.19c-.19.036-.513.19-.513.19zm.359.364c.292.03.567-.226.567-.226l-.567.226zm1-.477c-.239.18-.48.36-.726.534.295-.071.726-.534.726-.534zm-3.219.038l.047-.021-.048.022zm-.275-.132c.35-.108.693-.22 1.033-.341 0 0-.67.17-1.033.34zm-.257-.106v.004c.163-.044.326-.087.488-.135a2.756 2.756 0 00-.488.13zm.872.228c-.194.062-.388.122-.586.18.291.054.586-.18.586-.18zm.18.003c.155-.114.269-.221.269-.221-.25.162-.506.322-.767.478.15-.026.344-.142.497-.257h.002zm-1.025-.386v.01c.015-.003.032-.009.048-.01h-.048zm-.093-.123l-.022.01a.488.488 0 01.021-.01zm.071.251l-.093.032.092-.024v-.008h.001zm-2.439-.862c.056-.01.09-.018.09-.018-.024.002-.054.01-.09.018zm.495.582l.05-.013-.05.013zm.434-.298c-.219.034-.486.068-.684.114a8.35 8.35 0 001.07-.167l-.386.053zm-.753-.062c-.112.01-.214.009-.214.009.205.014.374-.005.557-.02-.095-.008-.23.004-.343.01zm.459.486c.12-.034.202-.08.202-.08a7.25 7.25 0 01-.624.072c.145.06.303.04.422.009zm.382-.049c.17-.09.296-.183.296-.183-.268.13-.545.252-.836.356.158.006.371-.081.54-.172v-.001zm-1.622-1.946a.37.37 0 00-.013.047c.002-.016.009-.032.013-.047zm-.143-.097a.549.549 0 00-.079.2c-.02.118.01.196.01.196.033-.19.118-.385.272-.588a.678.678 0 00-.205.193l.002-.001z" fill="#000"/><path d="M11.008 21.709A1.138 1.138 0 0111 21.27c-.103.163-.09.392-.01.552a.476.476 0 00.148.187c.07.041.115.06.115.06-.17-.094-.217-.23-.245-.361zm17.476-.275l-.022-.006.022.006zm.043.013l-.043-.013.043.013zm-.056.566h.014c-.01-.016-.023-.028-.032-.044 0 0 .003.016.018.044zm-1.186 8.031c.018.02.045.046.072.074a.535.535 0 00-.05-.054l-.023-.02h.002zm.425-.097l.034.09c-.006-.03-.018-.061-.027-.09h-.009.002zM25.142 31l.071-.075a.705.705 0 00-.071.076zm.839.214l.038-.042-.038.042zm.403-.768s-.047.093-.186.24c-.171.156-.405.35-.553.509.299-.244.675-.533.739-.749zm-1.08.774c.164-.116.323-.236.478-.36-.184.102-.478.36-.478.36zm.985-.108l.04-.06c-.178.154-.347.295-.53.437a.747.747 0 00.388-.243c.046-.05.08-.1.103-.134h-.001zm.251-.151c.096-.181.08-.32.08-.32a1.097 1.097 0 01-.194.398c-.123.147-.209.28-.313.415a.86.86 0 00.214-.204c.087-.09.167-.197.212-.288zm-4.034.372zm.801.324a.579.579 0 00.044-.035s-.017.012-.044.035zm.304-.487c-.208.124-.462.28-.631.42.342-.206.678-.418 1.005-.635 0 0-.164.09-.373.216zm-.971.402l.523-.294c-.2.074-.523.294-.523.294zm1.025-.016c-.19.117-.381.233-.575.347.323-.02.575-.347.575-.347zm.194-.046c.133-.16.226-.306.226-.306-.221.24-.451.475-.686.71.153-.066.327-.241.46-.404zm-3.244.3c.016-.01.03-.021.046-.033l-.046.032zm.345-.46c-.22.105-.486.24-.664.365.357-.178.71-.36 1.058-.547 0 0-.174.077-.394.181zm-.96.298v.004l.503-.232a2.86 2.86 0 00-.504.228zm.98.09l-.599.297c.322.007.6-.297.6-.297zm.197-.026c.147-.15.253-.285.253-.285a33 33 0 01-.744.647c.157-.051.345-.215.491-.362zm6.835-1.078c.017-.012.034-.023.05-.036-.014.01-.03.023-.05.036zm0 0l-.047.032.003-.001.044-.031zm.05-.036l.042-.032c-.012.012-.028.022-.042.032zm-2.152.682c.03-.025.053-.048.07-.065-.023.025-.046.044-.07.066zm.05-1.333v.002c.01-.005.012-.006 0-.002zM20 31.477v.01c.017-.006.034-.015.052-.02 0 0-.018 0-.053.01zm-.125-.115zm.125.257l-.095.051.094-.042v-.009zm-2.78-.367a.64.64 0 00-.091.053l.09-.053zm.648.498a.977.977 0 00.049-.027l-.049.028zm.38-.43c-.226.09-.502.203-.691.313.37-.148.736-.303 1.096-.464 0 0-.18.063-.406.151zm-1.024.24c.19-.066.377-.136.563-.207-.209.04-.563.207-.563.207zm.393.399c.322.032.62-.25.62-.25-.205.085-.412.168-.62.25zm1.093-.526c-.259.199-.524.394-.792.587.161-.038.36-.186.519-.323a3.75 3.75 0 00.273-.264zm-3.486.006l-.041.018.04-.018zm0 0l.011-.005-.011.005zm.382-.372c-.234.067-.519.15-.72.238.386-.105.763-.223 1.135-.349l-.417.111h.002zm-1.044.127c.197-.044.391-.09.583-.14-.211.018-.583.14-.583.14zm.346.442c.32.069.65-.183.65-.183-.214.065-.43.126-.65.183zm1.145-.413a17.99 17.99 0 01-.848.506c.166-.022.38-.148.552-.27a3.35 3.35 0 00.297-.237l-.001.001zm-3.63-.704zm.394-.071c.063.011.127.019.189.024.24.021.444.01.608-.023a2.309 2.309 0 01-.403.015 3.335 3.335 0 01-.475-.054 1.433 1.433 0 01-.44-.169c.096.072.211.125.329.163.055.022.13.032.192.044zm-.426-.32l.08.047c.11.058.226.099.338.127-.086-.035-.221-.082-.342-.15-.144-.066-.167-.16-.206-.207h-.004c.026.044.045.087.082.126.018.019.03.04.053.056v.001zm.112.556c.181.042.324.03.324.03a1.873 1.873 0 01-.815-.332c.096.163.312.26.49.302z" fill="#000"/><path d="M12.205 30.674c.19.12.567.164.842.126.138-.015.251-.043.33-.07.077-.026.12-.046.12-.046-.34.106-.841.122-1.292-.01zm-.605-.476l.005.025c-.002-.008-.003-.017-.006-.025zm.897-.251h-.019c.014.016.03.03.041.047 0 0-.004-.017-.023-.047h.001zm-.207 0a1.768 1.768 0 01-.034-.09c.006.03.018.06.027.09h.009-.002zm1.75 0v-.003c-.01.005-.012.007 0 .003zm-2.102-.652l-.043.032c.013-.012.029-.022.043-.032zm.048-.035l.048-.031h-.003l-.045.032zm0 0a.691.691 0 00-.048.036l.048-.035zm15.591.116zm.823.32l-.007-.024.006.024zm-.897.251h.019c-.014-.017-.03-.031-.041-.048 0 0 .004.017.023.048h-.001z" fill="#000"/></svg>