<svg width="276" height="350" fill="none" xmlns="http://www.w3.org/2000/svg"><path d="M243.625 330.603h-4.866v-7.217c7.668-1.14 13.579-7.743 13.579-15.714 0-8.769-7.149-15.907-15.933-15.907-8.783 0-15.933 7.138-15.933 15.907 0 7.936 5.867 14.521 13.491 15.696v7.235h-12.472s-2.354-.079-2.828-1.184c0 0 2.02 4.367 5.085 4.367h10.207v4.911s-.273 4.498-2.065 5.963l8.353 5.331s-1.484-2.096-1.484-11.619v-4.586h15.389s-4.647-4.841-4.849-6.612c0 0-.746 3.429-5.674 3.429zm-17.233-22.931c0-7.305 4.488-13.25 10.013-13.25 5.525 0 10.013 5.945 10.013 13.25 0 7.304-4.488 13.25-10.013 13.25-5.525 0-10.013-5.946-10.013-13.25zm-21.221-8.191h11.998s-4.646-4.393-4.848-6.164c0 0-1.414 2.981-6.342 2.981h-21.466s-2.354-.079-2.829-1.184c0 0 2.021 4.367 5.086 4.367h11.673c.114.43.176.877.176 1.325v4.928h-5.745c-4.927 0-6.341-3.429-6.341-3.429-.202 1.763-4.849 6.612-4.849 6.612h25.657v17.354h-19.157c-4.708-3.166-6.508-1.868-6.508-1.868 2.046-.684 1.695 7.164 1.695 7.164v9.059s.29 7.822 9.038 7.822h13.553s6.412.184 9.714-5.183c0 0 1.01-1.885 1.476-2.078 0 0-3.092.105-3.874-6.752 0 0 .106 8.751-9.337 8.751h-11.558s-4.348.176-4.348-4.27v-12.075h16.39c6.473 0 4.734 9.83 4.734 9.83l5.577-5.568c-2.441-.342-2.169-2.973-2.169-2.973v-19.266c2.784-.429 4.594-4.332 4.594-4.332-.475 1.105-2.829 1.184-2.829 1.184h-10.918v-1.394c0-1.78.633-3.49 1.757-4.849v.008zm-46.35 15.18h7.844l-2.802-4.867s.246 4.218-3.487 4.218h-1.564v-3.113c0-5.384 3.76-6.858 3.76-6.858l-11.067-3.867c1.475 2.184 1.791 6.673 1.791 6.673v7.165h-7.176s-.5 1.438 3.356 3.648c0 0-1.01-2.999 3.82-2.999v22.326c0 1.762-.799 3.463-2.266 4.446-3.135 2.087-1.572-4.131-1.572-4.131s-3.127 6.875 0 6.875 6.649 5.762 6.649 5.762l4.69-4.35c-1.299-1.105-1.993-6.401-1.993-6.401v-24.519l.017-.008z" fill="#fff"/><path d="M172.444 299.236c0-2.684 1.783-3.482 1.783-3.482l-11.251-3.919c3.118 3.113-1.546 2.981-1.546 2.981h-12.587c-2.582 0-5.138-.535-7.51-1.569l-3.241-1.412s2.284 1.622 2.284 6.164v21.528s-.158 10.523-4.444 18.354c0 0 9.266-6.533 9.266-30.051l.035-9.831h21.994v22.23c0 8.304-6.421-1.447-6.421-1.447l6.579 13.759 6.834-8.489c-.396-.359-.738-1.201-1.019-2.131-.545-1.841-.773-3.762-.773-5.682v-17.003h.017zm-36.846 12.469l-5.288-5.963s.22 2.78-5.534 2.78h-2.977v-5.673c0-1.78.632-3.49 1.757-4.85h13.702s-4.647-4.393-4.849-6.164c0 0-.746 2.981-5.674 2.981h-22.134s-2.354-.079-2.828-1.184c0 0 2.02 4.367 5.085 4.367h9.969c.115.43.176.877.176 1.325v9.207h-7.106s-2.714-1.017-2.275-2.122l-5.12 4.972s2.336.36 2.336 3.043v24.72s.29 7.822 9.038 7.822h10.523s6.412.184 9.714-5.183c0 0 1.01-1.885 1.476-2.078 0 0-3.874-.342-3.874-8.155 0 0 .106 10.146-9.336 10.146h-8.529s-4.348.175-4.348-4.271v-10.479h18.147s-4.647-4.84-4.849-6.612c0 0-.746 3.429-5.674 3.429h-7.624v-12.066h26.096v.008zm-64.444-4.91s5.946.877 7.545 7.901c0 0 .659 3.227 3.777 2.534 3.118-.693 2.02-13.11-11.322-10.435z" fill="#fff"/><path d="M94.316 297.991s-4.647-4.394-4.849-6.165c0 0-1.414 2.981-6.341 2.981H60.99s-2.353-.079-2.828-1.183c0 0 1.072 2.297 2.828 3.56v29.464s.273 2.631-2.17 2.973l5.578 5.568s-1.062-9.83 5.411-9.83h18.147v2.008l.008 10.058c0 4.446-4.347 4.271-4.347 4.271H68.08c-9.451 0-9.337-10.146-9.337-10.146 0 7.813-3.874 8.155-3.874 8.155.466.193 1.476 2.078 1.476 2.078 3.303 5.358 9.715 5.183 9.715 5.183h17.53c8.757 0 9.038-7.822 9.038-7.822v-9.059s-.351-7.857 1.695-7.164c0 0-1.8-1.298-6.508 1.868H66.218v-26.781h28.098v-.017z" fill="#fff"/><path d="M46.815 343.774h-4.936v-7.778c0-1.71.58-3.368 1.633-4.7h1.845c8.757 0 9.038-7.822 9.038-7.822v-9.059c0-2.683 2.336-3.043 2.336-3.043l-5.12-4.972c.439 1.105-2.275 2.122-2.275 2.122h-7.457v-5.673c0-1.78.632-3.49 1.756-4.85h13.703s-4.647-4.393-4.849-6.164c0 0-.746 2.981-5.674 2.981H24.681s-2.354-.079-2.829-1.184c0 0 2.02 4.367 5.086 4.367h9.97c.114.43.175.877.175 1.325v9.207h-2.626c-5.753 0-5.534-2.78-5.534-2.78l-5.287 5.963H49.73v10.058c0 4.446-4.348 4.271-4.348 4.271h-8.528c-9.451 0-9.337-10.146-9.337-10.146 0 7.813-3.874 8.155-3.874 8.155.466.193 1.476 2.079 1.476 2.079 3.302 5.357 9.714 5.182 9.714 5.182h2.108c.088.386.141.781.141 1.175V343.8H23.495s-1.168-.079-1.643-1.184c0 0 2.02 4.367 5.086 4.367h30.4s-4.647-4.84-4.849-6.611c0 0-.746 3.428-5.674 3.428v-.026zm91.181-69.223c75.818 0 137.504-61.585 137.504-137.28 0-36.953-14.712-70.538-38.577-95.24a74.302 74.302 0 016.667-5.981l.703-.553 6.016-30.428-36.741 17.582C191.873 8.348 165.892 0 137.996 0c-27.897 0-53.878 8.348-75.573 22.65L25.691 5.078l6.017 30.429.702.552a74.355 74.355 0 016.667 5.98C15.212 66.742.5 100.328.5 137.28c0 75.694 61.686 137.28 137.496 137.28v-.009zM242.843 17.678l-2.995 15.127c-9.591 7.796-17.33 17.836-22.398 29.096l-19.218 42.714a4.655 4.655 0 01-4.251 2.745c-3.136 0-5.375-3.034-4.453-6.025l13.535-43.74.141-.456 8.159-26.386a4.665 4.665 0 012.442-2.823l26.131-12.505c1.528-.728 3.232.587 2.907 2.245v.008zm-41.168 131.537s.15.736.202 1.876h.027a16.571 16.571 0 01-.343 1.701c-.053.316-.228.614-.377.93a4.656 4.656 0 01-.563.903c-.395.596-.983 1.114-1.546 1.578-.632.43-1.238.816-1.932 1.026l-.465.141c.562-.255 1.124-.535 1.625-.877.5-.298.931-.649 1.352-1.026-.149.123-.457.377-.79.614-.51.315-1.054.596-1.212.596 1.677-.842 3.548-2.675 3.733-4.691-.132.377-.273.745-.431 1.104-.219.334-.413.676-.65.991-.255.299-.509.597-.773.886l-.896.78c.237-.228.501-.491.791-.78.255-.307.5-.666.755-1.043.457-.79.65-1.789.624-2.815h.053c-.132-.676-.317-1.351-.703-1.93.044.088.096.211.14.386.123.342.246.868.325 1.544h-.017c-.079.666-.079 1.543-.554 2.402-.184.456-.535.86-.852 1.298-.412.395-.781.842-1.335 1.184.255-.167.519-.403.782-.702.281-.28.571-.622.808-1.043.272-.395.448-.894.606-1.412.035-.272.062-.552.097-.842 0-.298 0-.596-.018-.903h.062c-.22-.798-.457-1.631-1.116-2.297-.281-.36-.702-.632-1.08-.921-.422-.263-.896-.474-1.379-.667.369.176 1.098.439 1.774 1.061.378.281.676.693 1.01 1.14.123.246.237.5.352.781.096.281.166.587.246.903h-.071c.053.877-.026 1.859-.536 2.78-.5.912-1.317 1.771-2.433 2.455 0 0 .44-.342.923-.903.456-.579.957-1.377 1.036-2.227l-.088.403c-.079.228-.21.544-.351.868-.343.623-.834 1.28-1.203 1.359-.334.097.079-.684.404-1.482.316-.815.483-1.692.483-1.692-.018-.009-.097.517-.334 1.061-.193.561-.562 1.123-.668 1.394 0 0-.149-.561-.263-1.289-.07-.377-.123-.78-.193-1.245-.088-.456-.36-.973-.562-1.473 0 0 0 .096.044.28.07.193.14.456.263.842.149.377.158.833.211 1.403.053.579.132 1.289.149 2.245 0 0-.017-.166-.053-.447a6.814 6.814 0 00-.202-1.026 9.147 9.147 0 00-.351-1.157s-.193-.483-.703-1.026c0 0-.017-.018-.017-.027-.044-.044-.097-.087-.141-.131v-.035l.132.157c-.053-.07-.088-.114-.132-.175l.369-2.639c.22.122.439.254.659.403.703.447.94 1.008 1.159 1.315h.027c-.281-.78-1.019-1.385-1.827-1.824l.123-.912v.018a9.007 9.007 0 011.537.78c-.457-.377-.984-.666-1.52-.903l.255-1.824c1.063.404 2.108.947 2.986 1.71-.298-.579-.834-1.026-1.361-1.394a6.687 6.687 0 00-1.572-.667l.052-.385c.519.096 1.046.21 1.573.377-.404-.272-.958-.483-1.537-.64l.114-.798c1.388.35 2.767.999 3.812 2.051.992.983 1.721 2.272 1.835 4.017.009.14.027.263.036.394 0 .053 0 .088-.009.141-.114.833-.202 1.587-.51 2.236.299-.702.352-1.535.44-2.377h.026a11.783 11.783 0 00-.351-1.876l.008.009zm-5.928 54.613c.017.088.035.193.052.342.044.325.088.807.123 1.386h.027c-.079.5-.185 1.105-.361 1.727a6.233 6.233 0 01-.966 1.789c-.86 1.131-2.178 2.078-3.61 2.552l-.5.14c.817-.35 1.554-.798 2.257-1.271-.536.298-1.098.579-1.265.587 1.748-.859 3.689-2.543 3.9-4.612-.527 1.561-1.607 2.753-2.907 3.692 1.027-.816 2.468-2.386 2.266-4.604h.053c-.15-.754-.361-1.5-.87-2.105 0 0 .474.693.615 2.105h-.018c-.044.701-.14 1.578-.597 2.438-.439.868-1.23 1.683-2.31 2.42.94-.684 2.688-2.201 2.389-4.858h.061c-.193-.842-.562-1.675-1.247-2.359-.659-.693-1.642-1.201-2.749-1.57.439.167 1.212.447 2.003 1.044a4.65 4.65 0 011.791 2.885h-.07c.246 1.903-.799 3.858-3.144 5.209 0 0 .448-.342.94-.886.465-.561.975-1.333 1.089-2.157l-.114.386c-.062.245-.211.535-.369.85-.334.614-.844 1.228-1.248 1.324-.377.097 0-.649.334-1.411.351-.763.536-1.675.536-1.675s-.035.131-.079.333c-.079.193-.176.456-.29.728-.255.535-.597 1.096-.711 1.341 0 0-.062-.131-.132-.35a9.742 9.742 0 01-.229-.877 12.595 12.595 0 01-.166-1.219c0-.237-.185-.491-.317-.763-.114-.263-.298-.544-.439-.816-.035 0 .088.413.422 1.21.237.404.167.869.219 1.412.053.57.158 1.228.308 2.14 0 0-.149-.649-.422-1.394-.123-.351-.263-.737-.395-1.105-.307-.412-.694-.781-1.019-1.105.308.359.589.877.676 1.324a8.095 8.095 0 00-1.458-1.315l.457-3.298c.483.193 1.028.413 1.537.711.984.447 1.142 1.087 1.414 1.412h.027c-.176-.299-.308-.597-.562-.86-.123-.131-.211-.272-.369-.386l-.545-.324a9.143 9.143 0 00-1.502-.605l.123-.895c.448.106.87.22 1.221.386.509.193.957.43 1.361.658-.667-.491-1.458-.851-2.266-1.114-.088-.035-.202-.052-.298-.079l.237-1.736c1.546.403 3.039 1.026 4.269 1.964-.659-1.113-2.144-1.789-3.373-2.069a9.479 9.479 0 00-.861-.149l.044-.316c.966.097 1.932.263 2.872.535-.685-.43-1.73-.71-2.828-.851l.105-.78c2.003.245 3.997.965 5.358 2.254 1.001.955 1.748 2.166 1.871 3.954.009.141.026.264.035.404 0 .052 0 .088-.009.14a9.296 9.296 0 01-.334 1.631c.141-.552.203-1.149.255-1.771h.027c-.079-.579-.159-1.166-.334-1.719l.009-.009zm-12.622 1.114c-2.117-.053-4.137.623-4.137.623-.229.105-1.16.464-1.66.727-.782.386-1.485.825-2.117 1.281-1.159.85-2.082 1.789-2.907 2.788a15.3 15.3 0 00-1.414-.71l4.813-45.415c.378.202.764.395 1.186.561 1.01.412 2.125.702 3.434.807 1.291.088 2.767-.026 4.348-.421 1.651-.421 3.065-1.07 4.225-1.841l-5.762 41.6h-.009zm-15.731 3.657c-1.283-.193-2.741-.228-4.322-.044-2.081.245-3.864.815-5.296 1.57-1.318.683-2.372 1.517-3.32 2.411a16.588 16.588 0 00-1.37-.877 13.665 13.665 0 00-2.785-1.21l1.941-41.066c1.168-.219 2.214-.552 3.101-.973a12.387 12.387 0 003.179-2.21c.413.281.844.544 1.309.789.958.509 2.012.904 3.285 1.149a13.75 13.75 0 004.234.097c2.046-.237 3.785-.851 5.129-1.631a11.583 11.583 0 001.88-1.36l-4.655 43.933a13.371 13.371 0 00-2.302-.587l-.008.009zm-72.718 9.348c.228.157.465.306.72.456 1.265.736 2.81 1.332 4.55 1.683 2.292.482 4.339.404 6.008.044.096-.018.175-.053.263-.07l.65 6.165c.334 3.165-2.951 5.489-5.814 4.103-3.136-1.517-4.902-2.902-5.209-3.691v-.167l-1.177-8.523h.009zm8.862 1.148a11.1 11.1 0 01-3.346-.193 10.475 10.475 0 01-1.651-.473 11.91 11.91 0 002.784.544s-1.081-.211-2.442-.693c-1.361-.465-3.004-1.254-4.093-2.254l-.246-.272c.773.5 1.564 1.009 2.354 1.482 0 0-1.405-.912-1.484-1.166 1.177.833 2.837 1.754 4.33 2.096a118.457 118.457 0 01-3.285-1.763c1.212.561 3.311 1.491 5.507 1.079 0 0-.659 0-1.73-.184a14.261 14.261 0 01-4.146-1.439c1.309.641 4.611 1.702 8.344.211-1.475.5-4.971 1.28-8.871-.763 0 0 1.757.588 3.39.377 0 0-2.485.079-2.837-.395-.175-.228.703-.333 1.599-.412l1.836-.105h-1.142c-.606 0-1.291 0-1.581.026 0 0 2.143-1.666 4.681-1.929 0 0-.465-.07-1.37.158-.913.228-2.266.763-4.172 1.903l1.52-1.017c.852-.561 1.888-1.228 2.687-1.631-.457.184-1.08.438-1.651.614.984-.641 1.941-1.307 2.916-1.86 1.511-.885 3.057-1.534 4.708-1.753a10.977 10.977 0 013.074.035c.185.035.343.061.518.096a19.22 19.22 0 012.372 1.088c-2.503-.579-4.234-.667-5.358-.597-1.116.07-1.634.298-1.634.298 3.206-.447 5.85.641 5.85.641-2.451-.316-4.506.026-4.506.026 4.023-.14 5.832.824 5.832.824-1.335-.149-3.118.184-3.118.184 1.625-.254 4.005.123 4.005.123-.518-.044-1.581.43-2.529.903-.94.465-1.766.939-1.766.939 3.145-1.316 5.358-1.535 5.358-1.535-.386-.123-2.319 1.508-2.319 1.508.299-.21.888-.421 1.388-.605-.448.307-.887.667-.887.667.149-.07.492-.228.861-.404-1.625 1.298-3.145 2.701-4.84 3.789-1.502.964-3.144 1.657-4.927 1.85l.017-.018zm-23.293-11.82a3.753 3.753 0 01-.053-.342 20.308 20.308 0 01-.123-1.386h-.026c.079-.5.184-1.105.36-1.727a6.22 6.22 0 01.966-1.789c.86-1.132 2.178-2.079 3.61-2.552l.5-.14c-.816.35-1.554.798-2.257 1.271.536-.298 1.098-.579 1.265-.587-1.748.859-3.689 2.543-3.9 4.603.527-1.561 1.608-2.753 2.907-3.691-1.027.815-2.468 2.385-2.266 4.603h-.052c.149.754.36 1.5.87 2.105 0 0-.475-.693-.616-2.105h.018c.044-.701.14-1.578.597-2.438.44-.868 1.23-1.683 2.31-2.42-.94.684-2.687 2.201-2.389 4.858h-.061c.193.842.562 1.675 1.247 2.359.659.693 1.642 1.202 2.75 1.57-.44-.167-1.213-.447-2.004-1.044a4.65 4.65 0 01-1.791-2.885h.07c-.246-1.903.8-3.858 3.144-5.209 0 0-.447.342-.94.886-.465.561-.974 1.333-1.088 2.157l.114-.386c.061-.245.21-.534.369-.85.333-.614.843-1.228 1.247-1.324.377-.097 0 .649-.334 1.412-.351.762-.536 1.674-.536 1.674s.035-.131.08-.333c.078-.193.175-.456.29-.728.254-.535.596-1.096.71-1.341 0 0 .062.131.132.35.07.22.15.509.229.877.061.351.132.763.167 1.219 0 .237.184.491.316.763.114.263.299.544.439.816.035 0-.088-.412-.422-1.21-.237-.404-.166-.869-.22-1.412-.052-.57-.157-1.228-.307-2.14 0 0 .15.649.422 1.394.123.351.263.737.395 1.105.308.412.694.781 1.02 1.105-.308-.359-.59-.877-.677-1.324.386.456.597.868 1.124 1.254l-.44-3.166.502 3.622-.159-.017c-.105-.114-.237-.237-.36-.369.123.149.237.272.334.369l.158.14a.944.944 0 01-.088-.097c1.862 1.386 6.026 1.623 6.948 1.596.58-.008.905-.044 1.107.053.035.017.044.035.07.053-.009.061-.009.14-.009.219 0 .298.062.631.062.631-.562-.473-1.063-.508-1.73-.57-.633-.044-1.265-.052-1.265-.052 1.238.175 1.66.271 1.958.482.273.193.396.43.396.43-.44-.15-.975-.202-1.494-.246l-.93-.088c1.308.255 1.791.412 2.142.649.334.228.466.474.466.474-.562-.167-1.88-.062-1.915-.079a6.95 6.95 0 011.581.184 5.7 5.7 0 01.694.21c-.255-.052-.992.342-1.976.614-.958.298-2.1.465-2.1.465 1.942-.158 2.996-.421 3.654-.544.159-.035.3-.061.422-.087.105-.027.316-.009.43-.018.246.009.387.018.387.018-.158-.088-.843.166-1.23.526a9.133 9.133 0 01-1.019.631c.325-.14.844-.28 1.23-.421-.369.255-.843.544-.843.544.15-.044.465-.158.764-.289-1.44 1.104-3.838 2.069-6.71 2.104-2.539.062-5.367-.693-7.124-2.359-1.001-.956-1.748-2.166-1.87-3.955-.01-.14-.027-.263-.036-.403 0-.053 0-.088.009-.14a9.38 9.38 0 01.334-1.631c-.14.552-.202 1.148-.255 1.771h-.026c.079.579.158 1.166.333 1.719l-.008.009zm.816-46.099c-.614-.272-1.466-.79-2.389-1.325-1.8-1.166-3.504-2.946-3.803-4.463l-.061-.36c.202.456.386.939.685 1.386l.43.693.466.57a7.47 7.47 0 01-.527-.746c-.246-.456-.457-.912-.422-1.017.185.342.404.728.676 1.123.308.368.65.771 1.01 1.166.809.745 1.775 1.491 2.811 1.964l-1.054-.772-.93-.833c-.633-.517-1.081-1.14-1.582-1.683.299.298.641.64 1.028 1.017.421.359.957.719 1.52 1.096.588.342 1.264.64 1.95.912.333.132.728.237 1.01.289.263.044.526.071.79.079 0 0-.158-.035-.44-.114a7.29 7.29 0 01-.544-.175 8.558 8.558 0 01-.913-.377c-1.169-.509-2.706-1.429-3.9-2.719.65.632 1.677 1.386 3.092 1.974 2.081.894 3.557.92 5.401.517a8.844 8.844 0 01-3.039.026c-1.818-.351-4.813-1.64-6.253-3.858 0 0 .36.386.966.885.334.228.729.474 1.16.711.43.237.948.403 1.43.552 0 0-.184-.07-.456-.166-.272-.114-.676-.237-1.028-.448-.36-.201-.729-.421-1.019-.622-.272-.211-.447-.421-.465-.553-.035-.254.913.255 1.941.614.483.211 1.028.351 1.405.474.378.114.633.201.633.201l-1.23-.447c-.667-.245-1.37-.614-1.713-.736l1.924.043c1.107.009 2.416-.079 3.487 0 0 0-.325-.131-1.23-.131-.896-.044-2.468.123-5.138-.351 0 0 .237.026.633.079.386.044.922.088 1.528.079 1.177.026 2.52-.219 3.32-.395-.448.062-1.107.106-1.757.079 1.3-.193 2.345-.543 3.145-.938.316-.14.553-.324.878-.447.36-.114.712-.193 1.072-.281a9.53 9.53 0 012.16-.245 9.828 9.828 0 012.662.394c.158.053.298.097.439.141a21.427 21.427 0 011.976 1.227c-2.17-.771-3.654-1.052-4.646-1.122-.975-.079-1.458.061-1.458.061 1.431 0 2.67.325 3.583.632.914.306 1.467.631 1.467.631-2.134-.544-3.979-.482-3.979-.482 1.774.193 3.04.517 3.865.824.826.289 1.203.57 1.203.57-1.177-.272-2.802-.167-2.802-.167 1.467-.044 3.566.526 3.566.526-.465-.07-1.458.237-2.362.57-.896.325-1.687.658-1.687.658 2.468-.693 4.243-.815 4.787-.833-.588.149-2.055 1.14-2.055 1.14.29-.149.843-.298 1.309-.421-.43.228-.87.526-.87.526.15-.052.466-.166.817-.289-1.599 1.035-3.118 2.148-4.805 2.929-1.493.71-3.1 1.113-4.822.999a10.57 10.57 0 01-1.52-.245 7.696 7.696 0 01-.807-.246 11.44 11.44 0 01-1.133-.456c-.852-.438-1.634-.833-2.302-1.298.554.378 1.204.676 1.854 1.018.325.158.676.333 1.01.447.386.14.527.175.79.254 0 0-.28-.123-.746-.333l.008.018zm-1.835-19.292l.202 1.446c-.08.071-.176.132-.255.211 0 0 .088-.07.255-.184l.114.824a11.66 11.66 0 00-.878 1.035 8.208 8.208 0 00-.536 1.087c.193-.438.597-1.149 1.431-1.947l.317 2.263c-.387.666-.642 1.315-.694 1.955-.097.912.175 1.842.957 2.543 0 0-.14-.166-.351-.482-.167-.307-.369-.78-.387-1.315-.052-.553.062-1.14.255-1.789.07-.211.167-.421.264-.631l.667 4.805a5.184 5.184 0 01-.957-.535 5.153 5.153 0 01-1.239-1.21c.563 1.184 1.581 1.868 2.258 2.192l.044.333c-.115-.008-.229-.026-.352-.043-.702-.097-1.44-.29-1.44-.29.404.123.94.386 1.423.518-.299-.044-.606-.088-.835-.123a7.855 7.855 0 00-.395-.079c.15.079.527.202.931.298a10.05 10.05 0 01-1.8-.324c-.615-.15-1.257-.404-1.634-.693-.826-.614-1.344-1.394-1.713-2.298-.5-1.543-.334-3.499 1.274-5.314.702-.859 1.748-1.64 3.065-2.367v.087c-.167.097-.343.202-.518.298l.535-.254-.008-.017zm98.339 15.609c-.369 0-1.607 1.946-1.607 1.946.202-.263.658-.614 1.036-.903-.307.386-.589.824-.589.824.115-.105.361-.333.633-.578-1.063 1.578-2.003 3.218-3.188 4.621-1.046 1.254-2.275 2.315-3.76 2.955a9.744 9.744 0 01-2.89.772 10.32 10.32 0 01-1.519.07c.79-.018 1.625-.114 2.494-.333 0 0-3.899.456-6.306-.588l-.29-.149 2.389.526s-1.44-.351-1.581-.543c1.221.333 2.881.64 4.225.491l-3.259-.544c1.177.105 3.197.289 4.954-.693 0 0-2.257.781-5.419.342a9.88 9.88 0 007.483-2.508c-.834.702-3.803 2.789-8.098 2.21 0 0 1.625-.061 2.951-.719 0 0-2.064.824-2.503.526-.422-.281 2.74-1.499 2.74-1.499s-1.835.613-2.301.841c0 0 1.282-2.104 3.426-3.078 0 0-1.669.281-4.102 3.455 0 0 1.633-2.42 2.775-3.577-.342.298-.808.692-1.247 1.026.65-.86 1.291-1.702 1.976-2.482 1.063-1.201 2.258-2.219 3.654-2.867.8-.378 1.66-.649 2.714-.816l.475-.053c1.238.071 2.362.307 2.362.307-2.327.167-3.882.562-4.848.939-.966.377-1.353.71-1.353.71 2.714-1.28 5.305-1.035 5.305-1.035-2.222.386-3.935 1.254-3.935 1.254 3.496-1.228 5.314-.868 5.314-.868-1.194.228-2.661 1-2.661 1 1.353-.658 3.522-.974 3.522-.974-.465.106-1.256.807-1.95 1.474-.694.657-1.282 1.297-1.282 1.297 2.389-1.999 4.242-2.788 4.242-2.788l.018.009zm-2.117-2.535a14.434 14.434 0 00-3.25.176c-1.897.298-3.496.885-4.778 1.631-1.177.666-2.108 1.482-2.942 2.332a13.271 13.271 0 00-1.283-.754c-.931-.473-1.95-.894-3.153-1.14-1.177-.254-2.53-.342-4.014-.245a15.112 15.112 0 00-3.232.596l.825-17.477c.299-6.419 5.174-11.724 11.559-12.54 1.414-.184 2.802-.377 4.164-.587 4.664-.71 8.722 3.209 8.23 7.892l-2.135 20.116h.009zm-14.897 5.814c-.342.36-.667.763-.667.763.132-.088.395-.289.694-.526-1.221 1.464-2.301 3.016-3.601 4.314-1.142 1.158-2.442 2.105-3.962 2.64-.869.315-1.8.491-2.916.552h-.255s-.061.009-.087.018c-.545.026-1.037 0-1.511-.044.509.026 1.045.009 1.598-.044v.026c.404-.026.817-.07 1.248-.14 0 0-.501.018-1.248 0v.026c-1.291-.026-3.689-.201-5.314-1.043l-.272-.167 2.337.693s-1.406-.456-1.529-.649c1.195.421 2.811.833 4.155.789l-3.197-.78c.913.149 2.327.377 3.768.061v.053a6.187 6.187 0 001.537-.456s-.58.149-1.546.228v-.018c-.966.097-2.451.132-4.207-.236.825.14 2.371.263 4.181-.228v-.202a10.635 10.635 0 01-4.77.088s1.625.052 2.987-.509c0 0-2.117.675-2.521.351-.404-.307 2.837-1.298 2.837-1.298s-1.871.482-2.354.675c0 0 1.423-2.017 3.636-2.823 0 0-1.695.149-4.339 3.148 0 0 1.792-2.298 3.022-3.376-.36.271-.861.631-1.318.938.712-.816 1.405-1.614 2.161-2.333l.404-.359v.272c1.151-1.097 2.389-1.982 3.821-2.517a10.002 10.002 0 012.802-.588c.166 0 .325 0 .483-.008 1.247.184 2.354.517 2.354.517-4.735-.105-6.386 1.122-6.386 1.122 2.828-1.069 5.419-.596 5.419-.596-2.274.184-4.066.912-4.066.912 3.61-.947 5.419-.403 5.419-.403-1.23.105-2.767.754-2.767.754 1.414-.544 3.628-.649 3.628-.649-.949.131-3.496 2.464-3.496 2.464 2.556-1.789 4.515-2.385 4.515-2.385-.369-.035-1.801 1.789-1.801 1.789.229-.237.712-.544 1.133-.807l-.009-.009zm-24.576 52.325a16.081 16.081 0 00-1.3-.982 13.365 13.365 0 00-3.285-1.649 16.027 16.027 0 00-4.321-.771h-.193l-2.003-42.39c.167.132.325.272.501.395.878.605 1.879 1.166 3.1 1.552 1.195.386 2.6.631 4.155.649 2.046.035 3.821-.325 5.244-.903a11.967 11.967 0 003.302-2c.395.307.799.597 1.247.868.914.57 1.942 1.035 3.18 1.368 1.212.325 2.635.474 4.19.404h.088l-.009-.263v.254h.272c.299-.009.571-.053.861-.079l-1.915 40.583a15.979 15.979 0 00-3.768-.315c-2.126.061-3.97.491-5.463 1.122-.677.281-1.291.614-1.862.973v-.21c-.729.421-1.397.886-2.021 1.385v.009zm-37.9-47.204a11.177 11.177 0 01-1.493-.377c.5.132 1.036.246 1.598.316v.026c.404.062.826.105 1.265.123 0 0-.5-.088-1.238-.272v.026c-1.274-.298-3.628-1.017-5.042-2.227l-.237-.228 2.16 1.228s-1.29-.763-1.37-.982c1.09.675 2.6 1.473 3.944 1.71-1.01-.491-2.003-.965-2.995-1.482.87.368 2.222.894 3.715.903l.027-.132-.035.176a6 6 0 001.616-.123s-.597.026-1.572-.114v-.018a13.394 13.394 0 01-4.102-1.175c.781.334 2.292.807 4.18.711v.061a9.728 9.728 0 004.094-.965c-.615.264-2.1.79-4.067.772v-.07a10.464 10.464 0 01-4.708-.982s1.59.438 3.065.184c0 0-2.24.175-2.564-.237-.167-.201.614-.351 1.423-.447.808-.096 1.66-.175 1.66-.175s-1.942.061-2.46.131c0 0 1.862-1.622 4.181-1.938 0 0-.421-.052-1.247.184-.826.246-2.047.772-3.707 1.921 0 0 2.293-1.815 3.716-2.613a27.01 27.01 0 01-1.493.622c.878-.631 1.73-1.271 2.608-1.806l.466-.272-.044.272c1.335-.825 2.723-1.447 4.207-1.675a9.846 9.846 0 012.837-.018l.474.079a16.27 16.27 0 012.196.974c-2.31-.509-3.908-.562-4.945-.474-1.036.088-1.493.307-1.493.307 2.96-.474 5.393.5 5.393.5-2.257-.263-4.146.088-4.146.088 3.707-.202 5.367.675 5.367.675-1.23-.132-2.855.201-2.855.201 1.485-.254 3.681.071 3.681.071-.949-.044-3.909 1.736-3.909 1.736 2.855-1.254 4.892-1.456 4.892-1.456-.36-.114-2.116 1.394-2.116 1.394.272-.192.808-.403 1.264-.57-.404.281-.808.623-.808.623.141-.07.448-.21.782-.377-1.484 1.21-2.846 2.499-4.383 3.525-1.353.903-2.828 1.579-4.436 1.78-.922.132-1.88.114-3.012-.079l-.255-.052h-.088l.009.017zm-3.733-8.769h.167c-.035-.017-.097-.009-.167 0zm17.207 8.147c-.36-.36 2.977-.939 2.977-.939s-1.914.246-2.415.377c0 0 1.669-1.815 3.961-2.341 0 0-.43-.017-1.229.298-.8.325-1.968.965-3.479 2.289 0 0 2.073-2.052 3.426-2.973-.395.228-.931.526-1.423.763.808-.719 1.598-1.429 2.433-2.052 1.282-.973 2.661-1.727 4.172-2.078.87-.21 1.774-.289 2.855-.237.167.018.325.027.483.044 1.221.333 2.283.807 2.283.807-2.354-.351-3.97-.272-4.997-.105-1.037.166-1.485.429-1.485.429 2.934-.719 5.455.079 5.455.079-2.284-.105-4.155.404-4.155.404 3.698-.491 5.437.271 5.437.271-1.238-.043-2.846.404-2.846.404 1.467-.369 3.689-.193 3.689-.193-.957.017-3.785 2.017-3.785 2.017 2.758-1.456 4.787-1.798 4.787-1.798-.369-.088-2.021 1.543-2.021 1.543.255-.21.782-.456 1.221-.657-.386.307-.764.675-.764.675.132-.079.431-.246.756-.43-1.397 1.307-2.671 2.701-4.111 3.832-1.274 1.018-2.688 1.781-4.251 2.131-.905.193-1.845.272-2.969.184a10.667 10.667 0 01-1.502-.236c.773.131 1.607.219 2.503.166 0 0-3.891-.324-6.06-1.806l-.255-.202 2.24.982s-1.335-.622-1.441-.833c1.133.553 2.697 1.193 4.041 1.307l-3.083-1.166c1.133.342 3.074.912 4.98.289 0 0-2.354.324-5.367-.719 1.283.394 4.462.964 7.817-.991-.966.517-4.259 1.973-8.361.579 0 0 1.607.263 3.039-.132 0 0-2.187.395-2.556.026v-.008zm16.495 1.894c1.168.473 2.758 1.008 4.102 1.035l-3.145-.965c1.151.263 3.119.701 4.972-.026 0 0-2.319.473-5.393-.377 1.3.298 4.497.675 7.729-1.491-.931.579-4.128 2.236-8.291 1.114 0 0 1.616.149 3.012-.334 0 0-2.152.535-2.538.202-.387-.342 2.907-1.131 2.907-1.131s-1.897.368-2.389.535c0 0 1.546-1.921 3.795-2.596 0 0-1.696.053-4.515 2.894 0 0 1.923-2.184 3.215-3.192-.378.254-.896.587-1.371.859.756-.763 1.502-1.534 2.293-2.201 1.221-1.043 2.547-1.894 4.04-2.341a9.98 9.98 0 012.837-.412c.167 0 .325.009.492.017 1.239.255 2.328.667 2.328.667-4.743-.421-6.456.71-6.456.71 2.89-.894 5.463-.254 5.463-.254-2.292.035-4.128.657-4.128.657 3.672-.719 5.446-.052 5.446-.052-1.239.017-2.82.57-2.82.57 1.45-.465 3.672-.412 3.672-.412-.958.061-3.654 2.236-3.654 2.236 2.67-1.623 4.673-2.087 4.673-2.087-.369-.062-1.924 1.666-1.924 1.666.246-.219.747-.491 1.186-.728-.369.333-.72.719-.72.719.131-.088.412-.272.729-.473-1.318 1.385-2.504 2.849-3.874 4.068-1.212 1.07-2.565 1.947-4.11 2.386a9.581 9.581 0 01-2.943.368 11.21 11.21 0 01-1.502-.132c.782.079 1.616.106 2.495 0 0 0-3.891-.079-6.14-1.411l-.264-.185 2.293.825s-1.37-.535-1.484-.737l-.018.009zm-24.4-.228c1.387-.333 2.538-.886 3.575-1.526.351.36.72.702 1.124 1.026.843.666 1.8 1.289 2.995 1.763 1.168.473 2.565.806 4.119.929 2.047.158 3.847-.088 5.306-.579 1.106-.359 2.037-.868 2.889-1.429l2.012 42.565c-1.537.053-2.916.307-4.102.702-1.414.473-2.582 1.122-3.663 1.859a15.82 15.82 0 00-1.203-1.088c-.887-.71-1.88-1.376-3.101-1.911-1.194-.527-2.6-.939-4.172-1.158a16.526 16.526 0 00-3.241-.149l-4.321-40.741c.632-.053 1.238-.14 1.791-.272l-.008.009zm47.913-8.945c-.158.071-.325.123-.474.202-.606.289-1.16.614-1.669.965v-.193c-.659.421-1.256.868-1.801 1.35a15.214 15.214 0 00-1.229-.842 12.152 12.152 0 00-3.083-1.359c-1.168-.333-2.521-.517-4.005-.5-1.959.018-3.654.369-5.033.93-1.274.508-2.31 1.175-3.259 1.92a17.703 17.703 0 00-1.177-.92 12.113 12.113 0 00-2.995-1.535 13.52 13.52 0 00-2.424-.579l-1.248-26.465a2.035 2.035 0 012.161-2.131c4.181.228 8.432.342 12.675.342 4.242 0 8.493-.114 12.674-.342a2.044 2.044 0 012.161 2.131l-1.274 27.026zm-28.37-.701c-.106 0-.202-.018-.308-.026-1.95-.106-3.662.157-5.068.622-1.3.439-2.371 1.026-3.364 1.71a15.25 15.25 0 00-1.115-.991 12.433 12.433 0 00-2.864-1.736 14.087 14.087 0 00-3.864-1.017c-1.915-.255-3.619-.132-5.042.219-.299.07-.588.158-.878.245l-2.275-21.466c-.5-4.683 3.566-8.611 8.23-7.892 4.242.649 8.748 1.157 13.386 1.525a2.044 2.044 0 011.888 1.938l1.265 26.878.009-.009zm-23.69-.702c-.605.246-1.176.509-1.72.807a22.684 22.684 0 00-.993-1.096 12.874 12.874 0 00-2.591-2.026 14.857 14.857 0 00-3.54-1.464c-1.757-.5-3.303-.632-4.646-.535a6.628 6.628 0 00-.422.044l-3.698-26.737c-.36-2.569 2.187-4.604 4.611-3.648a59.58 59.58 0 005.033 1.727 7.225 7.225 0 015.13 6.156l2.837 26.772zm-9.573 5.779c.307.395.641.789 1.019 1.166.773.781 1.686 1.5 2.855 2.114 1.141.596 2.53 1.078 4.093 1.35h.087l.255.053c.843.14 1.634.193 2.398.202l4.321 40.802c-.333.044-.667.096-.983.167-1.423.307-2.635.815-3.777 1.403-.325-.412-.641-.842-1.001-1.237a22.126 22.126 0 00-1.186-1.21c-.211-.193-.44-.386-.668-.57l-.193-.158-.158-.123c-.044-.043-.15-.096-.15-.131v-.079c0-.403.203-.579.203-.579s-.097.07-.37.141c-.272.07-.71.14-1.3.122a7.498 7.498 0 01-1.765-.263l-.641-.087-5.85-42.25c1.046-.166 1.968-.482 2.82-.85l-.009.017zm20.009 56.175c.386.394.79.771 1.229 1.131a12.61 12.61 0 003.294 1.956c1.291.517 2.828.894 4.541 1.026 2.257.184 4.234-.097 5.841-.632a12.16 12.16 0 001.388-.57l.492 10.497c.123 2.552-2.126 4.577-4.664 4.226-3.918-.552-7.431-1.28-10.505-2.095a4.052 4.052 0 01-2.978-3.499l-1.15-10.865a13.89 13.89 0 002.512-1.184v.009zm12.428 2.692c-.992.219-2.029.298-3.267.202a12.877 12.877 0 01-1.652-.255c.852.141 1.775.246 2.75.184 0 0-4.287-.359-6.658-1.999l-.281-.219 2.459 1.087s-1.467-.684-1.581-.92c1.247.613 2.96 1.315 4.436 1.438l-3.391-1.289c1.248.377 3.382 1.008 5.472.333 0 0-2.591.359-5.902-.798 1.344.412 4.594.991 8.081-.824a11.715 11.715 0 01-8.67.368s1.766.289 3.338-.123c0 0-2.398.421-2.802.018-.395-.395 3.276-1.009 3.276-1.009s-2.099.254-2.652.404c0 0 1.844-1.974 4.348-2.544 0 0-1.845-.061-5.165 2.807 0 0 2.284-2.228 3.759-3.227-.43.245-1.019.57-1.563.824.887-.772 1.748-1.552 2.661-2.227 1.406-1.062 2.899-1.886 4.55-2.28.94-.22 1.932-.325 3.109-.272.185.017.352.035.527.052a18.1 18.1 0 012.495.86c-5.13-.728-7.071.386-7.071.386 3.197-.79 5.955.052 5.955.052-2.494-.088-4.532.465-4.532.465 4.04-.553 5.938.263 5.938.263-1.353-.044-3.11.465-3.11.465 1.599-.412 4.032-.246 4.032-.246-1.045.027-4.119 2.228-4.119 2.228 3.012-1.614 5.217-2.009 5.217-2.009-.404-.096-2.187 1.702-2.187 1.702.281-.228.852-.509 1.335-.728-.422.342-.826.745-.826.745.15-.087.466-.272.817-.473-1.511 1.447-2.89 2.964-4.471 4.218-1.396 1.104-2.933 1.964-4.664 2.341h.009zm6.228-1.193c.412.351.843.702 1.317 1.026.975.649 2.073 1.246 3.417 1.658 1.317.412 2.863.657 4.576.657h.378c2.248 0 4.198-.429 5.753-1.087 1.432-.605 2.573-1.386 3.583-2.262.308.228.65.438.984.648l-.588 12.549a4.064 4.064 0 01-3.847 3.876c-1.977.105-4.032.158-6.158.158h-1.071c-4.919-.044-8.924-3.929-9.161-8.831l-.36-7.602c.412-.246.808-.5 1.177-.781v-.009zm17.382-1.034c-1.309 1.201-2.776 2.183-4.462 2.692-.966.298-1.994.447-3.232.464-.097 0-.185 0-.281-.008 0 0-.062 0-.097.008a12.08 12.08 0 01-1.651-.122c.553.052 1.15.061 1.756.035v.026c.448 0 .905-.035 1.371-.096 0 0-.554 0-1.371-.062v.027c-1.414-.097-4.031-.413-5.77-1.412l-.299-.193 2.53.877s-1.511-.57-1.643-.781c1.283.509 3.039 1.061 4.524 1.07l-3.47-1.008c.993.219 2.53.526 4.128.263v.052a6.412 6.412 0 001.704-.429s-.641.14-1.704.175v-.018a14.87 14.87 0 01-4.593-.482c.896.202 2.591.412 4.593-.035v.061c1.23-.236 2.591-.71 3.953-1.604-.729.429-2.108 1.087-3.953 1.394v-.079c-1.458.281-3.232.36-5.217-.14 0 0 1.774.149 3.303-.404 0 0-2.354.623-2.785.255-.43-.36 3.171-1.272 3.171-1.272s-2.073.43-2.609.614c0 0 1.669-2.122 4.129-2.885 0 0-1.854.079-4.91 3.21 0 0 2.09-2.403 3.478-3.526a30.12 30.12 0 01-1.493.956c.817-.85 1.625-1.692 2.477-2.438l.456-.368v.298c1.292-1.14 2.697-2.052 4.278-2.56.931-.29 1.906-.474 3.083-.509.184 0 .351 0 .536.009 1.352.245 2.556.675 2.556.675-5.174-.333-7.027.921-7.027.921 3.136-1.026 5.946-.395 5.946-.395-2.494.097-4.488.807-4.488.807 3.988-.859 5.938-.193 5.938-.193-1.353.061-3.066.702-3.066.702 1.564-.535 3.997-.553 3.997-.553-1.037.114-3.935 2.534-3.935 2.534 2.881-1.841 5.05-2.394 5.05-2.394-.404-.061-2.055 1.868-2.055 1.868.263-.254.808-.57 1.273-.833-.395.368-.764.807-.764.807l.782-.535c-1.397 1.552-2.653 3.174-4.137 4.542v-.008zm3.812 2.35c.826.403 1.73.754 2.767.982 1.352.307 2.916.43 4.629.298 2.257-.175 4.18-.763 5.682-1.561 1.388-.719 2.469-1.613 3.4-2.569.474.28.957.543 1.484.78.272.123.545.228.834.342l-1.159 10.944a4.052 4.052 0 01-2.978 3.499c-3.074.815-6.587 1.543-10.504 2.104-2.539.36-4.787-1.666-4.664-4.226l.5-10.593h.009zm17.215-7.945c.238-.272.747-.64 1.177-.947-.351.403-.676.877-.676.877.132-.114.413-.351.72-.614-1.229 1.684-2.336 3.42-3.689 4.902-1.194 1.324-2.591 2.42-4.242 3.069-.949.377-1.959.623-3.197.719-.598.053-1.142.035-1.669 0 .861.018 1.783-.044 2.749-.254 0 0-4.286.324-6.877-.912l-.308-.176 2.591.676s-1.554-.448-1.704-.658c1.327.412 3.127.824 4.603.719l-3.549-.737c1.283.176 3.487.456 5.446-.535 0 0-2.503.763-5.946.141 1.388.201 4.708.254 7.878-2.114-1.308.886-4.4 2.482-8.528 1.763 0 0 1.783.009 3.267-.658 0 0-2.301.807-2.758.465-.457-.324 3.066-1.517 3.066-1.517s-2.029.596-2.556.816c0 0 1.502-2.237 3.882-3.201 0 0-1.836.228-4.646 3.586 0 0 1.897-2.56 3.197-3.788-.387.307-.914.719-1.414 1.07.746-.912 1.484-1.806 2.274-2.622 1.221-1.271 2.565-2.324 4.12-2.973.887-.377 1.844-.622 3.004-.771.184-.018.351-.027.527-.044 1.361.131 2.573.438 2.573.438-2.564.088-4.277.447-5.349.816-1.071.368-1.511.719-1.511.719 3.022-1.289 5.85-.903 5.85-.903-2.45.324-4.365 1.201-4.365 1.201 3.873-1.193 5.858-.719 5.858-.719-1.326.184-2.96.973-2.96.973 1.511-.657 3.9-.912 3.9-.912-.509.106-1.414.825-2.204 1.526a43.184 43.184 0 00-1.458 1.359c2.231-1.727 4.022-2.543 4.576-2.779-.545.377-1.652 1.973-1.652 1.973v.026zm2.126 12.794l.659-6.209c.536.141 1.089.255 1.695.325 1.397.167 3.013.105 4.761-.254 2.011-.413 3.706-1.158 5.076-2.044l-1.15 8.296v.237c-.325.815-2.091 2.227-5.218 3.753-2.863 1.403-6.166-.93-5.823-4.095v-.009zm10.039-8.506c-.922.517-1.932.903-3.179 1.166-.606.123-1.16.184-1.695.219.878-.105 1.809-.254 2.766-.605 0 0-1.08.237-2.512.334-1.431.096-3.197.052-4.558-.43l-.325-.14 2.688.394s-1.617-.28-1.783-.473c1.37.263 3.241.482 4.734.184a98.111 98.111 0 01-3.672-.316c1.309.035 3.575.062 5.446-1.201 0 0-2.451 1.114-5.981.859 1.387.053 4.734-.263 7.571-2.999a11.454 11.454 0 01-8.257 2.719s1.792-.176 3.206-1.018c0 0-2.222 1.061-2.722.772-.246-.14.491-.587 1.273-1.017.791-.43 1.634-.824 1.634-.824s-1.968.824-2.468 1.096c0 0 1.273-2.377 3.504-3.631 0 0-.456.106-1.194.684-.747.57-1.783 1.596-3.031 3.411 0 0 1.634-2.753 2.767-4.112-.342.359-.825.815-1.273 1.219.641-.991 1.264-1.965 1.941-2.868 1.036-1.394 2.187-2.622 3.557-3.472a8.66 8.66 0 011.23-.667l.333-.149c.123-.053.238-.096.229-.105a.419.419 0 01.14-.07c.036-.009.071 0 .106-.009.369.193 1.115.412 1.115.412-.483.044-.755.114-.992.228-.123.061-.141.105-.554.281-.307.149-.588.272-.825.403-.949.517-1.327.93-1.327.93.686-.413 1.336-.755 1.968-.991.782-.307.773-.298 1.001-.342.378-.053.756 0 .756 0-.22.087-.404.193-.58.315a14.08 14.08 0 01-.246.193c-.097.07-.097.114-.325.228-.685.386-1.115.667-1.115.667.439-.211.852-.395 1.229-.579.185-.096.36-.184.518-.263.29-.132.545-.193.782-.228.466-.061.861-.018.861-.018-.536.237-1.072 1.026-1.107 1.035.308-.351.712-.605 1.063-.789.351-.175.65-.298.65-.298-.202.123-.105.763-.272 1.455-.132.693-.492 1.412-.492 1.412.773-1.166 1.036-1.894 1.221-2.35.167-.456.272-.658.272-.658-.141.027.123.43.29.877.184.448.272.921.272.921-.009-.254.088-.64.123-.938.132.351.246.78.246.78.026-.114.053-.35.044-.605.659 1.465.527 3.192-.764 5.025-.29.403-.633.824-1.045 1.219-.484.412-.738.745-1.063 1.07-.641.622-1.362 1.201-2.161 1.639l-.018.018zm8.09-54.815c-.826.526-1.73.903-2.872 1.201-.545.131-1.054.21-1.546.263.799-.132 1.651-.307 2.512-.666 0 0-.984.263-2.292.403-1.309.149-2.925.175-4.19-.219l-.308-.114c.817.087 1.643.193 2.469.263 0 0-1.494-.184-1.652-.36 1.265.202 2.978.316 4.339-.017a85.05 85.05 0 01-3.373-.141c1.195-.026 3.277-.079 4.928-1.315 0 0-2.205 1.122-5.437 1.026 1.274-.009 4.339-.421 6.807-3.06-1.08 1.052-3.654 2.946-7.457 2.832 0 0 1.634-.237 2.89-1.052 0 0-1.994 1.052-2.46.806-.228-.122.422-.561 1.125-.982.702-.412 1.458-.824 1.458-.824s-1.766.824-2.214 1.105c0 0 1.072-2.227 3.057-3.455 0 0-.413.114-1.063.666-.659.562-1.572 1.526-2.626 3.236 0 0 1.388-2.587 2.363-3.876-.299.342-.721.789-1.116 1.166.554-.92 1.072-1.85 1.651-2.7.888-1.325 1.88-2.482 3.083-3.315.677-.491 1.423-.877 2.328-1.219.141-.044.272-.088.413-.132.246-.026.606-.096.738-.061.131.035.193.088.29.123l.316.131c-.229.035-.29.035-.571.123-.413.167-.791.316-1.133.456-.685.298-1.239.588-1.652.842-.834.517-1.159.903-1.159.903a11.725 11.725 0 013.232-1.561c.413-.131.835-.245 1.002-.263.149 0 .21.018.21.018-.114.044-.702.342-1.071.543-.404.211-.764.43-1.063.623-.615.368-.984.649-.984.649.782-.43 1.45-.772 2.029-1.026.562-.246 1.116-.474 1.239-.465.395-.087.702-.035.702-.035-.272.132-.465.377-.737.632-.422.315-.712.578-.712.578.246-.219.659-.473.852-.614.193-.131.352-.254.518-.342.317-.184.58-.306.58-.306-.184.131-.219.762-.492 1.482-.105.333-.351.727-.527 1.017l-.272.473c.237-.298.457-.587.667-.859.176-.246.299-.465.413-.658.229-.394.378-.684.483-.921.15-.298.238-.482.281-.578 0 .149.088.464.132.789.062.438.053.938.053.938.035-.272.184-.657.263-.947.044.351.062.781.062.781.044-.114.105-.351.14-.605.123.71.106 1.543-.158 2.402-.123.43-.307.895-.535 1.333-.202.439-.396.86-.633 1.28-.808 1.447-1.923 2.754-3.355 3.631l.035-.026zm3.39-12.295c-.465.035-.948.088-1.484.202l-.843.298-.044.061a.36.36 0 00-.132.036c-.29.087-.562.201-.869.306-1.581.597-2.987 1.395-4.085 2.289a14.672 14.672 0 00-2.521 2.666c-.43-.219-.878-.43-1.343-.614a13.094 13.094 0 00-2.671-.745l2.679-25.273c.308-2.893 2.337-5.314 5.13-6.156a60.43 60.43 0 005.024-1.727c2.415-.956 4.963 1.07 4.611 3.648l-3.46 25.009h.008zm-10.417-30.797c-11.243 2.912-26.245 4.516-42.222 4.516-32.99 0-54.87-6.778-57.794-12.075h11.032c7.14 6.402 31.435 8.243 46.762 8.243 15.327 0 39.622-1.841 46.763-8.243h10.988c-1.335 2.236-6.271 5.165-15.529 7.559zm-61.097-36.909l.465-1.841c.826-3.28 8.415-6.796 18.41-6.796 9.996 0 17.585 3.516 18.41 6.796l.466 1.841h33.272l-4.893 15.802c-11.787-3.665-28.792-5.752-47.255-5.752-18.462 0-35.467 2.087-47.254 5.752l-4.893-15.802h33.272zm-34.774-4.867l-.175-.57c-2.372-7.664 3.364-15.433 11.4-15.433h84.84c8.036 0 13.772 7.77 11.4 15.433l-.175.57h-31.234c-2.811-5.165-11.577-8.637-22.407-8.637s-19.604 3.464-22.406 8.637H84.355zm97.549 26.799c-1.133 3.297-16.952 9.304-43.908 9.304-26.957 0-42.776-6.007-43.909-9.304 1.133-3.297 16.952-9.304 43.909-9.304 26.956 0 42.775 6.007 43.908 9.304zm21.308-64.199l-5.111 16.53H77.9l-5.113-16.53c18.639-12.575 41.072-19.94 65.217-19.94 24.146 0 46.579 7.366 65.217 19.94h-.009zM36.143 32.814l-2.995-15.127c-.325-1.657 1.379-2.981 2.907-2.245l26.13 12.505a4.69 4.69 0 012.443 2.824l8.16 26.386.14.456 13.535 43.74c.923 2.99-1.317 6.024-4.453 6.024a4.67 4.67 0 01-4.251-2.744L58.54 61.918a79.876 79.876 0 00-22.398-29.095v-.01zm17.953 31.095l20.94 46.529c-.017.21-.053.421-.053.622 0 .114.027.22.027.334l.017.096c.018.333.062.658.14.982l3.892 28.087c-3.311 1.667-5.367 3.938-5.92 5.858a6.189 6.189 0 00-.299 2.613c.15.816.378 1.544.756 2.184a8.024 8.024 0 00-.615 1.762c-.194 1.316 0 2.815 1.054 4.499 1.063 1.614 3.118 3.341 5.911 4.595 1.028.465 1.388.561 1.941.745.088.027.176.035.264.062l4.778 34.489c-1.853.271-3.636.92-5.279 2.218-.843.631-1.52 1.429-2.082 2.377-.57.947-.773 2.113-.904 3.428l-.018.149c.018.149.026.281.044.43.15 3.481 2.38 5.524 4.796 6.735a14.194 14.194 0 005.735 1.28l1.783 12.855c.413 9.19 29.671 15.285 47.009 15.285 17.339 0 46.587-6.095 47.009-15.285l1.792-12.969c.632 0 1.282-.035 1.959-.14 1.87-.263 3.943-.921 5.603-2.228.844-.631 1.52-1.429 2.082-2.376.571-.947.773-2.114.905-3.429l.017-.149c-.017-.149-.026-.281-.044-.43-.149-3.481-2.38-5.524-4.795-6.734a14.411 14.411 0 00-3.435-1.053l5.244-37.908c.167-.018.316-.018.492-.044a14.058 14.058 0 002.617-.693c.861-.377 1.845-.824 2.67-1.508 1.643-1.307 3.004-3.306 3.075-5.946l.017-.149c-.017-.14-.026-.28-.044-.421-.167-3.446-2.512-5.752-4.892-6.875-.536-.298-1.107-.499-1.669-.666l4.243-30.648c.07-.324.114-.649.14-.982l.018-.096c0-.114.026-.22.026-.334a4.7 4.7 0 00-.053-.622l20.94-46.529a75.377 75.377 0 012.486-4.99c18.866 20.722 30.399 48.222 30.399 78.361 0 64.286-52.393 116.593-116.784 116.593-64.392 0-116.81-52.307-116.81-116.593 0-30.139 11.514-57.648 30.39-78.37a73.516 73.516 0 012.485 4.999z" fill="#fff"/><path d="M85.357 159.396zm112.015-8.305c.149.377.246.631.246.631l-.194-.631h-.052zm-15.644 7.533l.431-.491a3.608 3.608 0 00-.431.491zm5.323 1.105c.149-.167.228-.272.228-.272-.07.097-.149.184-.228.272zm1.906-3.903c.211-.219.404-.447.597-.675.211-.237.378-.447.457-.631-.026.009-.053.14-.413.491-.316.342-.79.798-1.326 1.324-1.072 1.052-2.442 2.324-3.338 3.376a63.426 63.426 0 002.749-2.552c.439-.421.852-.885 1.265-1.324l.009-.009zm-6.148 4.139a64.055 64.055 0 002.898-2.394c-1.115.693-2.898 2.394-2.898 2.394zm6.35-1.35c-1.01 1-2.073 1.955-3.171 2.903 1.01-.264 1.827-.974 2.363-1.649.545-.649.808-1.254.808-1.254zm1.774-2.131a3.87 3.87 0 00.149-.649c-.737 1.772-1.949 3.622-3.118 5.367.896-.605 1.766-1.956 2.337-3.148.281-.605.509-1.167.632-1.57zm-25.656 4.893c.29-.254.492-.438.492-.438-.15.105-.316.263-.492.438zm5.367 1.605s-.097.088-.264.229c.088-.08.176-.15.264-.229zm1.528-2.903c-1.274.833-2.828 1.877-3.856 2.798a159.792 159.792 0 006.148-4.244s-1.01.613-2.292 1.446zm-5.99 2.763c1.08-.649 2.152-1.298 3.206-1.973-1.23.517-3.206 1.973-3.206 1.973zm6.429-.36a122.167 122.167 0 01-3.522 2.315c2.02-.202 3.522-2.315 3.522-2.315zm1.203-.324c.8-1.053 1.344-1.982 1.344-1.982a155.934 155.934 0 01-4.128 4.63c.94-.465 1.994-1.596 2.784-2.657v.009zm-20.272 2.692l.281-.211c-.096.071-.184.141-.281.211zm4.462-4.218s-1.071.517-2.424 1.245c-1.344.728-2.978 1.64-4.067 2.482a222.734 222.734 0 006.491-3.718v-.009zm-8.37 3.376v.026l3.1-1.604c-1.019.333-2.521 1.218-3.1 1.569v.009zm6.174.307l-3.68 2.034c2.02-.052 3.68-2.034 3.68-2.034zm2.741-2.078a209.143 209.143 0 01-4.497 4.261c1.95-.736 4.497-4.261 4.497-4.261zm-8.801 4.218v.192a9.88 9.88 0 003.548-1.631 10.647 10.647 0 01-3.548 1.439zm.167-3.596s-.114.009-.325.079v.071c.114-.044.211-.106.325-.15zm-.87 1.324l.58-.298v-.052c-.343.21-.58.35-.58.35zm-17.532-1.359c.317-.219.545-.368.545-.368-.158.088-.343.21-.545.368zm4.796 2.517c.097-.061.193-.123.299-.193 0 0-.114.07-.299.193zm-1.994-.623a260.221 260.221 0 006.72-3.306s-4.427 1.78-6.72 3.306zm-2.108-.324l3.443-1.517c-1.3.333-3.443 1.517-3.443 1.517zm6.403.544l-3.794 1.797c2.011.079 3.794-1.797 3.794-1.797zm2.864-1.895a261.618 261.618 0 01-4.761 3.964c1.985-.623 4.761-3.964 4.761-3.964zm-26.684-1.06c.237-.141.421-.246.509-.299-.158.07-.325.176-.509.299zm4.637 2.815c.106-.062.203-.115.308-.176 0 0-.114.07-.308.176zm4.954-3.64s-4.523 1.517-6.903 2.885a220.462 220.462 0 006.903-2.885zm-8.994 2.438l3.531-1.298c-1.309.246-3.531 1.298-3.531 1.298zm2.459 2.499c2.012.21 3.9-1.552 3.9-1.552l-3.9 1.552zm6.878-3.271a238.084 238.084 0 01-4.989 3.666c2.029-.491 4.989-3.666 4.989-3.666zm-22.134.264c.202-.097.325-.15.325-.15l-.325.15zm-1.889-.913c2.407-.736 4.77-1.508 7.106-2.341 0 0-4.611 1.175-7.106 2.341zm-1.765-.728v.027c1.124-.298 2.24-.597 3.355-.921-1.063.123-2.714.666-3.355.894zm5.999 1.561c-1.335.43-2.67.842-4.032 1.237 2.003.377 4.032-1.237 4.032-1.237zm1.238.027c1.063-.781 1.845-1.517 1.845-1.517a174.75 174.75 0 01-5.27 3.279c1.027-.175 2.363-.973 3.417-1.762h.008zm-7.053-2.649v.071c.105-.027.22-.062.334-.071 0 0-.114-.008-.334 0zm-.641-.842s-.105.053-.15.071c.088-.044.15-.071.15-.071zm.491 1.719c-.377.132-.64.22-.64.22l.632-.167v-.053h.009zm-16.767-5.919a7.08 7.08 0 00.624-.123c-.167.018-.378.071-.624.123zm3.4 3.999c.114-.026.228-.061.35-.088 0 0-.13.035-.35.088zm2.986-2.043c-1.502.228-3.338.464-4.7.78 2.54-.202 4.963-.64 7.352-1.149 0 0-1.168.167-2.652.369zm-5.182-.43c-.764.071-1.467.062-1.467.062 1.414.097 2.573-.035 3.83-.132-.65-.062-1.581.026-2.354.061l-.01.009zm3.162 3.341c.825-.237 1.388-.552 1.388-.552-1.397.21-2.82.403-4.287.491.993.412 2.082.271 2.899.061zm2.626-.342c1.168-.614 2.038-1.254 2.038-1.254a58.724 58.724 0 01-5.754 2.447c1.09.035 2.556-.562 3.716-1.184v-.009zM78.04 146.514c-.062.211-.088.325-.088.325.018-.114.062-.22.088-.325zm-.984-.667c-.28.5-.492.947-.536 1.368-.14.816.062 1.351.062 1.351.228-1.298.817-2.64 1.87-4.034-.632.359-1.062.868-1.405 1.324l.01-.009z" fill="#fff"/><path d="M76.178 149.004c-.185-.903-.255-1.92-.053-3.008-.711 1.123-.623 2.692-.07 3.789.299.561.58.999 1.019 1.289.474.28.79.412.79.412-1.168-.649-1.493-1.587-1.686-2.482zm120.148-1.885a4.778 4.778 0 01-.149-.044c.053.017.097.026.149.044zm.299.088c-.097-.027-.202-.062-.299-.088.079.026.176.053.299.088zm-.387 3.885h.097c-.07-.106-.158-.194-.22-.299 0 0 .018.105.123.299zm-8.151 55.122c.123.14.308.315.492.508a3.658 3.658 0 00-.342-.368c-.097-.088-.158-.14-.158-.14h.008zm2.916-.667c.115.281.202.509.238.614-.044-.202-.123-.412-.185-.614h-.061.008zm-17.654 7.235c.29-.307.492-.518.492-.518-.15.132-.316.307-.492.518zm5.771 1.465l.263-.29-.263.29zm2.766-5.271s-.316.64-1.273 1.64c-1.177 1.078-2.785 2.402-3.803 3.498 2.055-1.674 4.637-3.656 5.076-5.138zm-7.422 5.314a70.255 70.255 0 003.285-2.473c-1.264.701-3.285 2.473-3.285 2.473zm6.772-.746c.176-.254.281-.412.281-.412a87.273 87.273 0 01-3.645 2.999c1.116-.228 2.038-.973 2.662-1.666.316-.342.553-.684.711-.921h-.009zm1.722-1.034c.667-1.246.553-2.201.553-2.201-.175.85-.632 1.745-1.335 2.736-.843 1.008-1.432 1.92-2.152 2.85.501-.307 1.01-.807 1.476-1.403.597-.623 1.15-1.351 1.458-1.974v-.008zm-27.729 2.552l.553-.448a4.27 4.27 0 00-.553.448zm5.507 2.228c.105-.08.202-.159.298-.247 0 0-.114.088-.298.247zm2.09-3.342c-1.431.85-3.179 1.92-4.339 2.876a181.26 181.26 0 006.913-4.358s-1.133.622-2.565 1.482h-.009zm-6.675 2.753l3.592-2.017c-1.37.509-3.592 2.017-3.592 2.017zm7.044-.105c-1.3.798-2.617 1.596-3.952 2.376 2.222-.131 3.952-2.376 3.952-2.376zm1.335-.316c.914-1.096 1.555-2.104 1.555-2.104a164.364 164.364 0 01-4.717 4.875c1.054-.456 2.249-1.657 3.162-2.771zm-22.301 2.053c.106-.07.211-.141.316-.22 0 0-.123.079-.316.22zm2.372-3.157c-1.511.727-3.338 1.648-4.568 2.507a233.435 233.435 0 007.273-3.753s-1.194.526-2.705 1.246zm-6.605 2.051v.027l3.46-1.596c-1.124.315-2.81 1.201-3.46 1.569zm6.745.614l-4.119 2.044c2.213.043 4.119-2.044 4.119-2.044zm1.353-.175a25.95 25.95 0 001.739-1.956 226.078 226.078 0 01-5.121 4.438c1.081-.351 2.372-1.474 3.382-2.482zm46.991-7.4c.114-.08.229-.159.343-.247-.097.071-.211.159-.343.247zm0-.001l-.325.22s.009 0 .018-.009c.105-.07.211-.141.307-.211zm.343-.245l.29-.22c-.088.079-.194.15-.29.22zm-14.792 4.682c.202-.175.361-.333.475-.447-.158.166-.316.298-.475.447zm.334-9.155s0 .009.009.018c.07-.035.079-.044-.009-.018zm-40.974 10.506v.07c.123-.044.237-.106.36-.141 0 0-.123 0-.36.071zm-.852-.79a4.467 4.467 0 00-.589.404c.343-.237.589-.404.589-.404zm.852 1.763l-.65.351.65-.29v-.061zm-19.113-2.517a4.36 4.36 0 00-.624.36c.36-.211.624-.36.624-.36zm4.462 3.421a7.19 7.19 0 00.334-.194s-.123.07-.334.194zm2.608-2.956c-1.554.614-3.451 1.394-4.751 2.148a205.995 205.995 0 007.536-3.183s-1.23.43-2.793 1.035h.008zm-7.035 1.648c1.3-.456 2.591-.938 3.865-1.42-1.432.272-3.865 1.42-3.865 1.42zm2.697 2.736c2.213.22 4.268-1.718 4.268-1.718a231.59 231.59 0 01-4.268 1.718zm7.518-3.613a213.597 213.597 0 01-5.445 4.034c1.106-.263 2.476-1.28 3.566-2.218 1.089-.947 1.879-1.816 1.879-1.816zm-23.97.044c-.096.044-.184.079-.281.123.123-.052.22-.096.281-.123zm0 0s.053-.026.079-.035c0 0-.026.009-.079.035zm2.627-2.551c-1.608.456-3.567 1.025-4.954 1.631 2.661-.72 5.252-1.526 7.808-2.394 0 0-1.256.333-2.863.763h.009zm-7.177.868c1.353-.298 2.688-.614 4.006-.956-1.45.123-4.006.956-4.006.956zm2.381 3.034c2.204.473 4.462-1.254 4.462-1.254-1.467.447-2.952.868-4.462 1.254zm7.87-2.833a123.187 123.187 0 01-5.833 3.473c1.142-.149 2.618-1.017 3.795-1.85 1.177-.833 2.046-1.631 2.046-1.631l-.008.008zm-24.954-4.831zm2.705-.491c.44.078.879.131 1.3.166 1.651.149 3.057.07 4.181-.158-.22.035-1.177.158-2.767.106-.913-.027-2.037-.15-3.267-.369-.624-.131-1.186-.272-1.67-.5a9.849 9.849 0 01-1.36-.657c.667.491 1.458.85 2.266 1.113.377.149.887.22 1.317.299zm-2.925-2.193l.545.325c.755.394 1.555.675 2.328.868-.589-.237-1.52-.561-2.355-1.035-.983-.447-1.141-1.087-1.414-1.412h-.026c.176.298.308.597.562.86.123.131.211.271.37.385l-.01.009zm.765 3.815c1.247.289 2.23.21 2.23.21-2.002-.342-4.013-1.07-5.603-2.28.659 1.114 2.143 1.789 3.373 2.07z" fill="#fff"/><path d="M84.408 210.537c1.309.824 3.9 1.131 5.788.868.949-.105 1.73-.298 2.266-.483.536-.175.826-.315.826-.315-2.336.728-5.78.842-8.88-.07zm-4.163-3.262c.026.105.043.167.043.167-.017-.053-.026-.115-.043-.167zm6.175-1.728h-.132c.096.114.202.211.28.325 0 0-.026-.114-.157-.325h.008zm-1.424 0a13.232 13.232 0 01-.237-.614c.044.202.123.412.185.614h.061-.009zm12.034 0s0-.009-.009-.017c-.07.035-.08.044.009.017zm-14.458-4.472l-.29.22c.088-.079.194-.15.29-.22zm.334-.236l.325-.22s-.009 0-.018.009c-.105.07-.21.14-.307.211zm0-.001a4.598 4.598 0 00-.334.246c.097-.07.211-.158.334-.246zm107.184.79c-.307-.097-.501-.141-.501-.141.176.044.334.088.501.141zm5.657 2.201a8.578 8.578 0 00-.044-.167c.017.052.026.114.044.167zm-6.166 1.719h.131c-.096-.114-.202-.211-.281-.325 0 0 .027.114.158.325h-.008z" fill="#fff"/></svg>